<svg width="121" height="122" viewBox="0 0 121 122" fill="none" xmlns="http://www.w3.org/2000/svg">
<path d="M0 10C0 4.47716 4.47715 0 10 0H111C116.523 0 121 4.47715 121 10V112C121 117.523 116.523 122 111 122H10C4.47715 122 0 117.523 0 112V10Z" fill="url(#paint0_linear_580_2)"/>
<path d="M56.5455 93H38.75C32.7523 93 27.6272 90.9328 23.3747 86.7984C19.1223 82.6641 16.9974 77.6109 17 71.6391C17 66.5203 18.5489 61.9594 21.6466 57.9563C24.7443 53.9531 28.7977 51.3937 33.8068 50.2781C35.4545 44.2406 38.75 39.3516 43.6932 35.6109C48.6364 31.8703 54.2386 30 60.5 30C68.2114 30 74.7535 32.6749 80.1264 38.0246C85.4993 43.3744 88.1844 49.887 88.1818 57.5625C92.7295 58.0875 96.5035 60.0405 99.5037 63.4215C102.504 66.8025 104.003 70.7557 104 75.2812C104 80.2031 102.269 84.3874 98.8077 87.834C95.3461 91.2806 91.1451 93.0026 86.2045 93H64.4545V64.8469L70.7818 70.95L76.3182 65.4375L60.5 49.6875L44.6818 65.4375L50.2182 70.95L56.5455 64.8469V93Z" fill="#E6E6E6"/>
<defs>
<linearGradient id="paint0_linear_580_2" x1="0" y1="0" x2="122.598" y2="1.62778" gradientUnits="userSpaceOnUse">
<stop stop-color="#05C7F2"/>
<stop offset="1" stop-color="#953CEE"/>
</linearGradient>
</defs>
</svg>
