<svg width="121" height="122" viewBox="0 0 121 122" fill="none" xmlns="http://www.w3.org/2000/svg">
<path d="M0 10C0 4.47716 4.47715 0 10 0H111C116.523 0 121 4.47715 121 10V112C121 117.523 116.523 122 111 122H10C4.47715 122 0 117.523 0 112V10Z" fill="url(#paint0_linear_327_5)"/>
<path fill-rule="evenodd" clip-rule="evenodd" d="M54.1366 30.2657C53.24 30.0579 52.3082 30.0544 51.41 30.2553C50.5119 30.4562 49.6703 30.8564 48.9476 31.4263C48.2248 31.9962 47.6394 32.7214 47.2345 33.548C46.8297 34.3747 46.6158 35.2819 46.6086 36.2024C46.6014 37.1229 46.8012 38.0333 47.1932 38.8662C47.6887 39.9192 47.2368 41.1745 46.1838 41.67C45.5783 41.955 44.9059 41.9266 44.3495 41.6509C43.9591 41.6231 43.5719 41.4863 43.2356 41.2337C42.0761 40.3627 40.6459 39.9301 39.1982 40.0125C37.7505 40.0948 36.3785 40.6868 35.3252 41.6837C34.272 42.6806 33.6053 44.0181 33.4433 45.4594C33.2814 46.9008 33.6346 48.3529 34.4403 49.5588C34.8587 50.1849 34.8974 50.9537 34.6105 51.5936C34.4998 51.9696 34.2831 52.3192 33.9639 52.594C32.5679 53.7954 31.493 55.3256 30.8362 57.0465C30.1794 58.7674 29.9614 60.6247 30.2019 62.4509C30.4424 64.2771 31.1338 66.0147 32.2137 67.5068C32.9768 68.5612 33.9169 69.4695 34.9884 70.1937C35.0992 70.0491 35.2135 69.9069 35.331 69.7673C36.4562 68.4306 37.8594 67.3555 39.4429 66.6171C41.0263 65.8788 42.7518 65.4949 44.499 65.4923C45.6627 65.4905 46.6076 66.4326 46.6093 67.5963C46.611 68.7601 45.669 69.7049 44.5053 69.7066C43.3714 69.7083 42.2516 69.9575 41.2239 70.4367C40.1963 70.9159 39.2855 71.6136 38.5553 72.4812C37.825 73.3487 37.2929 74.3652 36.996 75.4597C36.6991 76.5543 36.6446 77.7004 36.8363 78.8181C37.028 79.9359 37.4613 80.9983 38.1059 81.9313C38.7505 82.8643 39.5909 83.6453 40.5685 84.2199C41.5461 84.7944 42.6372 85.1487 43.7658 85.258C44.8943 85.3673 46.0332 85.229 47.1028 84.8527C48.2006 84.4665 49.4036 85.0433 49.7899 86.1411C49.9048 86.468 49.9345 86.8041 49.8904 87.1253C49.9021 87.2152 49.9081 87.3068 49.9081 87.3999C49.9081 88.5916 50.3815 89.7344 51.224 90.577C52.0664 91.4195 53.209 91.8928 54.4004 91.8928C55.5917 91.8928 56.7343 91.4195 57.5767 90.577C58.4192 89.7344 58.8926 88.5916 58.8926 87.3999V36.2492C58.8923 35.3289 58.6853 34.4197 58.2869 33.5901C57.8883 32.7604 57.3084 32.0308 56.59 31.4554C55.8717 30.88 55.0332 30.4734 54.1366 30.2657ZM60.9998 29.9882C60.4868 29.3123 59.8911 28.6999 59.2248 28.1662C58.0135 27.1959 56.5997 26.5103 55.0878 26.16C53.5759 25.8098 52.0046 25.8038 50.4901 26.1425C48.9756 26.4813 47.5566 27.1561 46.338 28.1171C45.1193 29.0781 44.1323 30.3007 43.4497 31.6945C42.7671 33.0883 42.4064 34.6177 42.3944 36.1696C42.3943 36.1755 42.3943 36.1814 42.3942 36.1873C41.287 35.8706 40.1263 35.7385 38.9588 35.8049C36.5176 35.9438 34.2042 36.942 32.4283 38.6229C30.6523 40.3038 29.5284 42.5588 29.2553 44.9888C29.045 46.8605 29.3499 48.7429 30.1219 50.4382C28.7227 51.9056 27.6254 53.6401 26.8988 55.5438C25.9926 57.9184 25.6918 60.4813 26.0236 63.0012C26.3555 65.5211 27.3095 67.9187 28.7997 69.9777C29.9503 71.5675 31.3927 72.9168 33.0445 73.9568C33.0036 74.0892 32.965 74.2224 32.9286 74.3564C32.4712 76.0427 32.3872 77.8085 32.6825 79.5305C32.9779 81.2526 33.6455 82.8895 34.6386 84.3269C35.6318 85.7644 36.9267 86.9678 38.433 87.8531C39.9392 88.7384 41.6205 89.2844 43.3595 89.4528C44.2182 89.536 45.0808 89.5261 45.9325 89.425C46.3035 90.9766 47.0972 92.4101 48.2438 93.5568C49.8766 95.1898 52.0911 96.1072 54.4004 96.1072C56.7096 96.1072 58.9241 95.1898 60.5569 93.5568C60.711 93.4027 60.8586 93.2435 60.9998 93.0795C61.1409 93.2435 61.2886 93.4027 61.4426 93.5568C63.0754 95.1898 65.29 96.1072 67.5992 96.1072C69.9084 96.1072 72.123 95.1898 73.7558 93.5568C74.9027 92.4097 75.6966 90.9756 76.0675 89.4232C76.9193 89.5244 77.782 89.5343 78.6408 89.4511C80.3797 89.2827 82.0609 88.7368 83.567 87.8516C85.0732 86.9663 86.368 85.763 87.3611 84.3257C88.3542 82.8883 89.0217 81.2515 89.317 79.5296C89.6124 77.8076 89.5284 76.0419 89.071 74.3558C89.0347 74.222 88.9961 74.0889 88.9553 73.9566C90.607 72.9167 92.0493 71.5675 93.1999 69.9777C94.69 67.9187 95.6441 65.5211 95.9759 63.0012C96.3078 60.4813 96.007 57.9184 95.1007 55.5438C94.3742 53.6401 93.2768 51.9056 91.8776 50.4382C92.6496 48.7429 92.9545 46.8605 92.7442 44.9888C92.4711 42.5588 91.3472 40.3038 89.5713 38.6229C87.7953 36.942 85.482 35.9438 83.0407 35.8049C81.8732 35.7385 80.7125 35.8706 79.6053 36.1873C79.6053 36.1814 79.6052 36.1755 79.6052 36.1696C79.5931 34.6177 79.2325 33.0883 78.5499 31.6945C77.8673 30.3007 76.8802 29.0781 75.6616 28.1171C74.4429 27.1561 73.0239 26.4813 71.5094 26.1425C69.9949 25.8038 68.4236 25.8098 66.9118 26.16C65.3999 26.5103 63.986 27.1959 62.7748 28.1662C62.1084 28.6999 61.5127 29.3123 60.9998 29.9882ZM63.107 36.2485C63.1072 35.3282 63.3142 34.4197 63.7127 33.5901C64.1112 32.7604 64.6911 32.0308 65.4095 31.4554C66.1279 30.88 66.9664 30.4734 67.863 30.2657C68.7596 30.0579 69.6914 30.0544 70.5895 30.2553C71.4877 30.4562 72.3292 30.8564 73.052 31.4263C73.7747 31.9962 74.3601 32.7214 74.765 33.548C75.1698 34.3747 75.3838 35.2819 75.3909 36.2024C75.3981 37.1229 75.1983 38.0333 74.8064 38.8662C74.3108 39.9192 74.7627 41.1745 75.8157 41.67C76.4212 41.955 77.0936 41.9266 77.65 41.6509C78.0404 41.6231 78.4277 41.4863 78.7639 41.2337C79.9234 40.3627 81.3536 39.9301 82.8013 40.0125C84.2491 40.0948 85.621 40.6868 86.6743 41.6837C87.7276 42.6806 88.3942 44.0181 88.5562 45.4594C88.7182 46.9008 88.365 48.3529 87.5592 49.5588C87.1409 50.1849 87.1021 50.9537 87.3891 51.5936C87.4997 51.9696 87.7164 52.3192 88.0357 52.594C89.4317 53.7954 90.5066 55.3256 91.1633 57.0465C91.8201 58.7673 92.0381 60.6247 91.7976 62.4509C91.5571 64.2771 90.8657 66.0147 89.7858 67.5068C89.0228 68.5611 88.0828 69.4694 87.0114 70.1935C86.9006 70.0489 86.7863 69.9067 86.6687 69.767C85.5437 68.4304 84.1405 67.3554 82.5572 66.6171C80.9738 65.8788 79.2485 65.4949 77.5014 65.4923C76.3377 65.4906 75.3928 66.4326 75.3911 67.5963C75.3894 68.7601 76.3314 69.7049 77.4952 69.7067C78.6289 69.7083 79.7486 69.9575 80.7761 70.4366C81.8037 70.9158 82.7143 71.6134 83.4445 72.4809C84.1747 73.3483 84.7067 74.3647 85.0036 75.4591C85.3005 76.5535 85.355 77.6995 85.1633 78.8172C84.9716 79.9348 84.5384 80.9971 83.8938 81.93C83.2493 82.8629 82.409 83.6438 81.4315 84.2183C80.454 84.7928 79.363 85.1471 78.2346 85.2564C77.1061 85.3657 75.9674 85.2274 74.8979 84.8511C73.8001 84.4649 72.5971 85.0417 72.2108 86.1395C72.0963 86.4652 72.0664 86.8001 72.1098 87.1202C72.0977 87.2117 72.0914 87.305 72.0914 87.3999C72.0914 88.5916 71.6181 89.7344 70.7756 90.577C69.9331 91.4195 68.7905 91.8928 67.5992 91.8928C66.4078 91.8928 65.2653 91.4195 64.4228 90.577C63.5803 89.7344 63.107 88.5915 63.107 87.3999V53.6343C65.2719 55.4813 68.0325 56.5064 70.8989 56.5064C72.0626 56.5064 73.0061 55.563 73.0061 54.3992C73.0061 53.2354 72.0626 52.292 70.8989 52.292C68.8324 52.292 66.8505 51.471 65.3892 50.0096C63.9279 48.5481 63.107 46.5659 63.107 44.499V36.2485Z" fill="#E6E6E6"/>
<defs>
<linearGradient id="paint0_linear_327_5" x1="0" y1="0" x2="122.598" y2="1.62778" gradientUnits="userSpaceOnUse">
<stop stop-color="#05C7F2"/>
<stop offset="1" stop-color="#953CEE"/>
</linearGradient>
</defs>
</svg>
