<svg width="121" height="122" viewBox="0 0 121 122" fill="none" xmlns="http://www.w3.org/2000/svg">
<path d="M0 10C0 4.47716 4.47715 0 10 0H111C116.523 0 121 4.47715 121 10V112C121 117.523 116.523 122 111 122H10C4.47715 122 0 117.523 0 112V10Z" fill="url(#paint0_linear_382_104)"/>
<mask id="mask0_382_104" style="mask-type:luminance" maskUnits="userSpaceOnUse" x="26" y="27" width="69" height="69">
<path fill-rule="evenodd" clip-rule="evenodd" d="M28 45.25H93L89.3889 94H31.6111L28 45.25Z" fill="white" stroke="white" stroke-width="4" stroke-linejoin="round"/>
<path d="M46.0557 52.4722V29H74.9446V52.4722" stroke="white" stroke-width="4" stroke-linecap="round" stroke-linejoin="round"/>
<path d="M46.0557 79.5557H74.9446" stroke="black" stroke-width="4" stroke-linecap="round"/>
</mask>
<g mask="url(#mask0_382_104)">
<path d="M17.167 18.1665H103.834V104.833H17.167V18.1665Z" fill="#E6E6E6"/>
</g>
<mask id="mask1_382_104" style="mask-type:alpha" maskUnits="userSpaceOnUse" x="52" y="55" width="18" height="13">
<path d="M54 67V57.112L55.616 58.648H52.08V55.8H57.776V67H54ZM64.2235 67.256C63.2315 67.256 62.3515 67.0267 61.5835 66.568C60.8262 66.1093 60.2288 65.4427 59.7915 64.568C59.3648 63.6933 59.1515 62.6373 59.1515 61.4C59.1515 60.1627 59.3648 59.1067 59.7915 58.232C60.2288 57.3573 60.8262 56.6907 61.5835 56.232C62.3515 55.7733 63.2315 55.544 64.2235 55.544C65.2155 55.544 66.0902 55.7733 66.8475 56.232C67.6155 56.6907 68.2128 57.3573 68.6395 58.232C69.0768 59.1067 69.2955 60.1627 69.2955 61.4C69.2955 62.6373 69.0768 63.6933 68.6395 64.568C68.2128 65.4427 67.6155 66.1093 66.8475 66.568C66.0902 67.0267 65.2155 67.256 64.2235 67.256ZM64.2235 64.232C64.4688 64.232 64.6875 64.1467 64.8795 63.976C65.0715 63.8053 65.2208 63.512 65.3275 63.096C65.4448 62.68 65.5035 62.1147 65.5035 61.4C65.5035 60.6747 65.4448 60.1093 65.3275 59.704C65.2208 59.288 65.0715 58.9947 64.8795 58.824C64.6875 58.6533 64.4688 58.568 64.2235 58.568C63.9782 58.568 63.7595 58.6533 63.5675 58.824C63.3755 58.9947 63.2208 59.288 63.1035 59.704C62.9968 60.1093 62.9435 60.6747 62.9435 61.4C62.9435 62.1147 62.9968 62.68 63.1035 63.096C63.2208 63.512 63.3755 63.8053 63.5675 63.976C63.7595 64.1467 63.9782 64.232 64.2235 64.232Z" fill="black"/>
</mask>
<g mask="url(#mask1_382_104)">
<path d="M0 10C0 4.47716 4.47715 0 10 0H111C116.523 0 121 4.47715 121 10V112C121 117.523 116.523 122 111 122H10C4.47715 122 0 117.523 0 112V10Z" fill="url(#paint1_linear_382_104)"/>
</g>
<defs>
<linearGradient id="paint0_linear_382_104" x1="0" y1="0" x2="122.598" y2="1.62778" gradientUnits="userSpaceOnUse">
<stop stop-color="#05C7F2"/>
<stop offset="1" stop-color="#953CEE"/>
</linearGradient>
<linearGradient id="paint1_linear_382_104" x1="0" y1="0" x2="122.598" y2="1.62778" gradientUnits="userSpaceOnUse">
<stop stop-color="#05C7F2"/>
<stop offset="1" stop-color="#953CEE"/>
</linearGradient>
</defs>
</svg>
