<svg width="121" height="122" viewBox="0 0 121 122" fill="none" xmlns="http://www.w3.org/2000/svg">
<path d="M0 10C0 4.47716 4.47715 0 10 0H111C116.523 0 121 4.47715 121 10V112C121 117.523 116.523 122 111 122H10C4.47715 122 0 117.523 0 112V10Z" fill="url(#paint0_linear_616_43)"/>
<path d="M60.5 93C77.897 93 92 78.897 92 61.5C92 44.103 77.897 30 60.5 30C43.103 30 29 44.103 29 61.5C29 78.897 43.103 93 60.5 93Z" stroke="#F8F8F8" stroke-width="6" stroke-linecap="round" stroke-linejoin="round"/>
<path d="M66.3202 52.6797C66.3202 54.3365 67.6633 55.6797 69.3202 55.6797C70.977 55.6797 72.3202 54.3365 72.3202 52.6797H66.3202ZM72.3202 50.1597C72.3202 48.5028 70.977 47.1597 69.3202 47.1597C67.6633 47.1597 66.3202 48.5028 66.3202 50.1597H72.3202ZM48.6802 52.6797C48.6802 54.3365 50.0233 55.6797 51.6802 55.6797C53.337 55.6797 54.6802 54.3365 54.6802 52.6797H48.6802ZM54.6802 50.1597C54.6802 48.5028 53.337 47.1597 51.6802 47.1597C50.0233 47.1597 48.6802 48.5028 48.6802 50.1597H54.6802ZM52.0062 69.371L51.0575 66.5249L45.3654 68.4223L46.3141 71.2684L52.0062 69.371ZM74.6862 71.2684L75.6349 68.4223L69.9428 66.5249L68.9941 69.371L74.6862 71.2684ZM72.3202 52.6797V50.1597H66.3202V52.6797H72.3202ZM54.6802 52.6797V50.1597H48.6802V52.6797H54.6802ZM49.1602 70.3197C46.3141 71.2684 46.3146 71.2698 46.3151 71.2714C46.3153 71.2719 46.3158 71.2735 46.3162 71.2746C46.3169 71.2767 46.3177 71.279 46.3185 71.2815C46.3201 71.2863 46.322 71.2917 46.3239 71.2974C46.3279 71.309 46.3326 71.3225 46.338 71.3378C46.3488 71.3684 46.3624 71.4063 46.3791 71.4511C46.4124 71.5405 46.4578 71.6576 46.5164 71.7984C46.6335 72.0793 46.8045 72.4578 47.0386 72.9012C47.504 73.783 48.2346 74.9524 49.3112 76.1268C51.5105 78.5261 55.1101 80.8797 60.5002 80.8797V74.8797C57.0702 74.8797 54.9998 73.4532 53.7341 72.0725C53.0782 71.3569 52.6276 70.6364 52.3449 70.1006C52.2048 69.8353 52.1101 69.6231 52.0549 69.4907C52.0274 69.4247 52.0101 69.3793 52.0022 69.3581C51.9982 69.3474 51.9966 69.3429 51.9973 69.3449C51.9977 69.3459 51.9986 69.3485 52.0001 69.3528C52.0008 69.355 52.0017 69.3576 52.0027 69.3606C52.0032 69.3621 52.0038 69.3637 52.0044 69.3655C52.0047 69.3663 52.0051 69.3677 52.0053 69.3681C52.0057 69.3696 52.0062 69.371 49.1602 70.3197ZM60.5002 80.8797C65.8902 80.8797 69.4898 78.5261 71.6891 76.1268C72.7657 74.9524 73.4964 73.783 73.9617 72.9012C74.1958 72.4578 74.3668 72.0793 74.4839 71.7984C74.5425 71.6576 74.588 71.5405 74.6212 71.4511C74.6379 71.4063 74.6516 71.3684 74.6623 71.3378C74.6677 71.3225 74.6724 71.309 74.6764 71.2974C74.6784 71.2917 74.6802 71.2863 74.6818 71.2815C74.6826 71.279 74.6834 71.2767 74.6841 71.2746C74.6845 71.2735 74.685 71.2719 74.6852 71.2714C74.6857 71.2698 74.6862 71.2684 71.8402 70.3197C68.9941 69.371 68.9946 69.3696 68.9951 69.3681C68.9952 69.3677 68.9957 69.3663 68.9959 69.3655C68.9965 69.3637 68.9971 69.3621 68.9976 69.3606C68.9986 69.3576 68.9995 69.355 69.0002 69.3528C69.0017 69.3485 69.0026 69.3459 69.003 69.3449C69.0037 69.3429 69.0021 69.3474 68.9982 69.3581C68.9902 69.3793 68.9729 69.4247 68.9454 69.4907C68.8902 69.6231 68.7955 69.8353 68.6554 70.1006C68.3727 70.6364 67.9221 71.3569 67.2662 72.0725C66.0005 73.4532 63.9301 74.8797 60.5002 74.8797V80.8797Z" fill="#F8F8F8"/>
<defs>
<linearGradient id="paint0_linear_616_43" x1="60.5" y1="0" x2="144.5" y2="180.5" gradientUnits="userSpaceOnUse">
<stop stop-color="#09B46C"/>
<stop offset="1" stop-color="#263A32" stop-opacity="0.89"/>
</linearGradient>
</defs>
</svg>
