<svg width="22" height="25" viewBox="0 0 22 25" fill="none" xmlns="http://www.w3.org/2000/svg">
<path d="M8.33333 22.619H13.0952C13.0952 23.9286 12.0238 25 10.7143 25C9.40476 25 8.33333 23.9286 8.33333 22.619ZM21.4286 20.2381V21.4286H0V20.2381L2.38095 17.8571V10.7143C2.38095 7.02381 4.7619 3.80952 8.33333 2.7381V2.38095C8.33333 1.07143 9.40476 0 10.7143 0C12.0238 0 13.0952 1.07143 13.0952 2.38095V2.7381C16.6667 3.80952 19.0476 7.02381 19.0476 10.7143V17.8571L21.4286 20.2381ZM16.6667 10.7143C16.6667 7.38095 14.0476 4.7619 10.7143 4.7619C7.38095 4.7619 4.7619 7.38095 4.7619 10.7143V19.0476H16.6667V10.7143Z" fill="#E6E6E6"/>
</svg>
