<svg width="22" height="25" viewBox="0 0 22 25" fill="none" xmlns="http://www.w3.org/2000/svg">
<path d="M21.4286 20.2381V21.4286H0V20.2381L2.38095 17.8571V10.7143C2.38095 7.02381 4.79762 3.77381 8.33333 2.72619V2.38095C8.33333 1.74948 8.58418 1.14388 9.0307 0.697365C9.47721 0.25085 10.0828 0 10.7143 0C11.3458 0 11.9514 0.25085 12.3979 0.697365C12.8444 1.14388 13.0952 1.74948 13.0952 2.38095V2.72619C16.631 3.77381 19.0476 7.02381 19.0476 10.7143V17.8571L21.4286 20.2381ZM13.0952 22.619C13.0952 23.2505 12.8444 23.8561 12.3979 24.3026C11.9514 24.7491 11.3458 25 10.7143 25C10.0828 25 9.47721 24.7491 9.0307 24.3026C8.58418 23.8561 8.33333 23.2505 8.33333 22.619" fill="#E6E6E6"/>
</svg>
