<svg width="30" height="30" viewBox="0 0 30 30" fill="none" xmlns="http://www.w3.org/2000/svg">
<circle cx="15" cy="15" r="15" fill="#05C7F2"/>
<path d="M15 19.6C16 19.6 16.8501 19.2499 17.5504 18.5496C18.2507 17.8493 18.6005 16.9995 18.6 16C18.6 15 18.2499 14.1499 17.5496 13.4496C16.8493 12.7493 15.9995 12.3995 15 12.4C14 12.4 13.1499 12.7501 12.4496 13.4504C11.7493 14.1507 11.3995 15.0005 11.4 16C11.4 17 11.7501 17.8501 12.4504 18.5504C13.1507 19.2507 14.0005 19.6005 15 19.6ZM8.6 22.4C8.16 22.4 7.7832 22.2432 7.4696 21.9296C7.156 21.616 6.99947 21.2395 7 20.8V11.2C7 10.76 7.1568 10.3832 7.4704 10.0696C7.784 9.756 8.16053 9.59947 8.6 9.6H11.12L12.6 8H17.4L18.88 9.6H21.4C21.84 9.6 22.2168 9.7568 22.5304 10.0704C22.844 10.384 23.0005 10.7605 23 11.2V20.8C23 21.24 22.8432 21.6168 22.5296 21.9304C22.216 22.244 21.8395 22.4005 21.4 22.4H8.6Z" fill="#202124"/>
</svg>
