<svg width="100" height="100" viewBox="0 0 100 100" fill="none" xmlns="http://www.w3.org/2000/svg">
<path d="M37.5 25.5V41.5L48 36.5L56.5 30.5L65.5 28L76.5 34L88.5 42.5L92 35.5L87.5 22L81 14.5L70.5 11.5L61 12.5L37.5 25.5Z" fill="#BFC22D"/>
<path d="M64.4592 26.3621L50.8502 34.776L60.6246 41.0776L70.1978 45.1522L77.057 51.4927L77.7382 64.0041L76.8187 78.6808L84.6132 77.9767L93.7295 67.05L96.6906 57.5773L93.7207 47.0688L87.8745 39.5142L64.4592 26.3621Z" fill="#C2512D"/>
<path d="M78.4995 52.3205L64.547 44.4894L63.768 56.093L64.8399 66.4419L62.615 75.5139L51.9989 82.1696L38.7133 88.4737L43.1044 94.9519L57.0794 97.6353L66.8011 95.6379L74.5563 87.9499L78.334 79.1761L78.4995 52.3205Z" fill="#C22D2D"/>
<path d="M63.0989 73.988L62.4988 57.9993L52.1938 63.3896L43.9248 69.7041L35.0249 72.5399L23.8076 66.9567L11.4972 58.9128L8.26223 66.0391L13.2654 79.3609L20.0421 86.6118L30.6472 89.2159L40.1031 87.8603L63.0989 73.988Z" fill="#9C2DC2"/>
<path d="M37.3257 73.5807L50.5316 64.5473L40.4766 58.7038L30.7253 55.0757L23.5806 49.0589L22.3223 36.5922L22.5629 21.8888L14.8093 22.9521L6.2074 34.2882L3.68695 43.8876L7.13903 54.2477L13.328 61.5242L37.3257 73.5807Z" fill="#2DA8C2"/>
<path d="M24.5 18L23.5 45.5V49.5L27 52L37 57.5V26L45 22L61 12.5L57.5 7.50002L43.5 3.00002L32 7.50002L24.5 18Z" fill="#42C22D"/>
<path d="M92.8416 40.9213C93.9597 37.5541 94.3464 33.9871 93.9759 30.4585C93.6053 26.9299 92.4861 23.5211 90.6928 20.4596C88.0344 15.8322 83.9751 12.1686 79.1003 9.99693C74.2254 7.82527 68.7868 7.25778 63.5687 8.37627C60.6041 5.07861 56.824 2.61907 52.6081 1.24465C48.3921 -0.12976 43.8888 -0.370649 39.5503 0.54618C35.2118 1.46301 31.1909 3.50528 27.8914 6.46787C24.592 9.43046 22.1302 13.2091 20.7533 17.4242C17.2769 18.1371 13.9927 19.5837 11.1202 21.6675C8.24764 23.7513 5.85297 26.4241 4.09618 29.5075C1.40882 34.1272 0.260264 39.4818 0.816555 44.7973C1.37285 50.1127 3.60516 55.1135 7.19076 59.0767C6.06853 62.4422 5.67794 66.0086 6.04513 69.5373C6.41232 73.066 7.52882 76.4755 9.31993 79.5379C11.9818 84.167 16.0446 87.8315 20.9229 90.0031C25.8012 92.1748 31.243 92.7415 36.4641 91.6217C38.8194 94.274 41.7134 96.3933 44.9529 97.8381C48.1924 99.2829 51.7029 100.02 55.2499 100C60.5984 100.005 65.8101 98.3102 70.1327 95.1604C74.4553 92.0106 77.6652 87.5687 79.2991 82.4759C82.7751 81.7617 86.0588 80.3145 88.9312 78.2308C91.8035 76.1471 94.1984 73.4747 95.9562 70.3921C98.6118 65.7792 99.7406 60.4447 99.1812 55.1515C98.6217 49.8583 96.4028 44.8771 92.8416 40.9213ZM55.2499 93.455C50.8696 93.4619 46.6266 91.9267 43.2649 89.1183L43.8562 88.7833L63.7658 77.2909C64.2613 77.0002 64.6727 76.5857 64.9596 76.088C65.2464 75.5903 65.3989 75.0265 65.402 74.4521V46.3817L73.8187 51.2509C73.8603 51.2719 73.8963 51.3025 73.9238 51.3402C73.9514 51.3779 73.9696 51.4215 73.977 51.4675V74.7283C73.9665 79.6918 71.99 84.4489 68.4803 87.9586C64.9706 91.4682 60.2134 93.4446 55.2499 93.455ZM14.997 76.2659C12.8002 72.4726 12.0115 68.0262 12.7695 63.7088L13.3612 64.0638L33.2903 75.5563C33.7835 75.8456 34.3449 75.9982 34.9166 75.9982C35.4883 75.9982 36.0497 75.8456 36.5428 75.5563L60.8878 61.5209V71.2392C60.8856 71.2896 60.8719 71.3388 60.848 71.3831C60.824 71.4275 60.7904 71.4659 60.7495 71.4954L40.5837 83.1258C36.28 85.6051 31.1685 86.2751 26.3712 84.989C21.574 83.7028 17.4832 80.5655 14.997 76.2659ZM9.75368 32.8984C11.9657 29.0807 15.4571 26.1689 19.6099 24.6784V48.3334C19.6024 48.9048 19.7485 49.4678 20.0327 49.9637C20.317 50.4595 20.7292 50.8699 21.2262 51.1521L45.4528 65.1283L37.0358 69.9971C36.9902 70.0213 36.9394 70.0339 36.8878 70.0339C36.8363 70.0339 36.7855 70.0213 36.7399 69.9971L16.6137 58.3867C12.3181 55.8967 9.1843 51.806 7.89854 47.0103C6.61277 42.2147 7.27985 37.1049 9.75368 32.8V32.8984ZM78.9049 48.9642L54.5995 34.85L62.997 30C63.0426 29.9758 63.0934 29.9632 63.1449 29.9632C63.1965 29.9632 63.2473 29.9758 63.2929 30L83.4191 41.6304C86.4964 43.4061 89.0051 46.0205 90.6523 49.1684C92.2995 52.3163 93.0172 55.8678 92.7216 59.4084C92.4261 62.9489 91.1295 66.3323 88.9832 69.1635C86.8369 71.9948 83.9294 74.1571 80.6003 75.3979V51.7429C80.5829 51.1724 80.4174 50.6162 80.1201 50.129C79.8228 49.6418 79.4043 49.2406 78.9049 48.9642ZM87.2829 36.3679L86.6912 36.0129L66.8016 24.4221C66.3055 24.131 65.7406 23.9775 65.1654 23.9775C64.5901 23.9775 64.0252 24.131 63.5291 24.4221L39.2045 38.4571V28.7392C39.1993 28.6898 39.2076 28.6399 39.2284 28.5948C39.2493 28.5497 39.2819 28.511 39.3228 28.4829L59.4491 16.8721C62.5337 15.0951 66.0606 14.2331 69.6171 14.3869C73.1737 14.5408 76.6129 15.7041 79.5326 17.7408C82.4523 19.7775 84.7317 22.6034 86.1042 25.8881C87.4768 29.1727 87.8857 32.7802 87.2833 36.2888L87.2829 36.3679ZM34.6108 53.5958L26.1941 48.7467C26.152 48.7213 26.116 48.687 26.0886 48.6462C26.0613 48.6054 26.0432 48.559 26.0358 48.5104V25.3092C26.0404 21.7499 27.0582 18.2655 28.9701 15.2633C30.8821 12.2612 33.6092 9.86538 36.8326 8.35601C40.056 6.84665 43.6425 6.28611 47.1727 6.73993C50.7029 7.19376 54.031 8.64319 56.7678 10.9188L56.1762 11.2542L36.267 22.7459C35.7715 23.0365 35.3601 23.451 35.0732 23.9487C34.7863 24.4464 34.6339 25.0102 34.6308 25.5846L34.6108 53.5958ZM39.1841 43.74L50.0258 37.4908L60.8878 43.74V56.2375L50.0653 62.4863L39.2041 56.2375L39.1841 43.74Z" fill="#E6E6E6"/>
</svg>
