<svg width="121" height="122" viewBox="0 0 121 122" fill="none" xmlns="http://www.w3.org/2000/svg">
<path d="M0 10C0 4.47716 4.47715 0 10 0H111C116.523 0 121 4.47715 121 10V112C121 117.523 116.523 122 111 122H10C4.47715 122 0 117.523 0 112V10Z" fill="url(#paint0_linear_619_44)"/>
<path d="M60.5 92C77.897 92 92 77.897 92 60.5C92 43.103 77.897 29 60.5 29C43.103 29 29 43.103 29 60.5C29 77.897 43.103 92 60.5 92Z" stroke="#F8F8F8" stroke-width="6" stroke-linecap="round" stroke-linejoin="round"/>
<path d="M66.3202 51.6797C66.3202 53.3365 67.6633 54.6797 69.3202 54.6797C70.977 54.6797 72.3202 53.3365 72.3202 51.6797H66.3202ZM72.3202 49.1597C72.3202 47.5028 70.977 46.1597 69.3202 46.1597C67.6633 46.1597 66.3202 47.5028 66.3202 49.1597H72.3202ZM48.6802 51.6797C48.6802 53.3365 50.0233 54.6797 51.6802 54.6797C53.337 54.6797 54.6802 53.3365 54.6802 51.6797H48.6802ZM54.6802 49.1597C54.6802 47.5028 53.337 46.1597 51.6802 46.1597C50.0233 46.1597 48.6802 47.5028 48.6802 49.1597H54.6802ZM46.5016 67.9296L45.1116 70.5882L50.4287 73.3682L51.8187 70.7097L46.5016 67.9296ZM69.1816 70.7097L70.5717 73.3682L75.8887 70.5882L74.4987 67.9296L69.1816 70.7097ZM72.3202 51.6797V49.1597H66.3202V51.6797H72.3202ZM54.6802 51.6797V49.1597H48.6802V51.6797H54.6802ZM49.1602 69.3197C51.8187 70.7097 51.8177 70.7116 51.8168 70.7134C51.8165 70.714 51.8155 70.7158 51.8149 70.717C51.8136 70.7193 51.8124 70.7216 51.8113 70.7238C51.8089 70.7282 51.8067 70.7324 51.8046 70.7363C51.8004 70.744 51.7968 70.7507 51.7937 70.7564C51.7874 70.7677 51.7833 70.7749 51.7814 70.7782C51.7775 70.7847 51.7824 70.7759 51.7969 70.7538C51.8259 70.7095 51.8924 70.6128 52.0026 70.4797C52.2223 70.2143 52.616 69.8036 53.2356 69.3727C54.4419 68.5338 56.6734 67.5 60.5002 67.5V61.5C55.5069 61.5 52.0684 62.876 49.8098 64.4469C48.6968 65.2209 47.9093 66.0152 47.3808 66.6535C47.117 66.9723 46.9177 67.2521 46.7744 67.4713C46.7028 67.581 46.6449 67.6757 46.5999 67.7529C46.5773 67.7915 46.558 67.8258 46.5416 67.8553C46.5335 67.8701 46.5261 67.8837 46.5194 67.8961C46.5161 67.9023 46.5129 67.9082 46.51 67.9138C46.5085 67.9166 46.5071 67.9193 46.5057 67.9219C46.505 67.9233 46.504 67.9252 46.5036 67.9258C46.5026 67.9277 46.5016 67.9296 49.1602 69.3197ZM60.5002 67.5C64.3269 67.5 66.5584 68.5338 67.7648 69.3727C68.3843 69.8036 68.778 70.2143 68.9977 70.4797C69.1079 70.6128 69.1745 70.7095 69.2034 70.7538C69.2179 70.7759 69.2228 70.7847 69.219 70.7782C69.217 70.7749 69.2129 70.7677 69.2066 70.7564C69.2035 70.7507 69.1999 70.744 69.1957 70.7363C69.1936 70.7324 69.1914 70.7282 69.189 70.7238C69.1879 70.7216 69.1867 70.7193 69.1854 70.717C69.1848 70.7158 69.1839 70.714 69.1835 70.7134C69.1826 70.7116 69.1816 70.7097 71.8402 69.3197C74.4987 67.9296 74.4977 67.9277 74.4967 67.9258C74.4964 67.9252 74.4953 67.9233 74.4947 67.9219C74.4933 67.9193 74.4918 67.9166 74.4903 67.9138C74.4874 67.9082 74.4842 67.9023 74.4809 67.8961C74.4742 67.8837 74.4668 67.8701 74.4587 67.8553C74.4423 67.8258 74.423 67.7915 74.4004 67.7529C74.3554 67.6757 74.2976 67.581 74.2259 67.4713C74.0826 67.2521 73.8834 66.9723 73.6195 66.6535C73.0911 66.0152 72.3035 65.2209 71.1906 64.4469C68.9319 62.876 65.4934 61.5 60.5002 61.5V67.5Z" fill="#F8F8F8"/>
<defs>
<linearGradient id="paint0_linear_619_44" x1="60.5" y1="-2.34986e-06" x2="219.5" y2="232.5" gradientUnits="userSpaceOnUse">
<stop stop-color="#FF1A1A"/>
<stop offset="1" stop-color="#160000"/>
</linearGradient>
</defs>
</svg>
