<svg width="22" height="20" viewBox="0 0 22 20" fill="none" xmlns="http://www.w3.org/2000/svg">
<path d="M10.0748 17.8188L10.0733 17.8175C7.22104 15.2547 4.93459 13.1952 3.34952 11.2737C1.77516 9.36525 1 7.71727 1 5.99455C1 3.18883 3.20439 1 6.05 1C7.6651 1 9.22925 1.75012 10.2441 2.92176L11 3.79437L11.7559 2.92176C12.7707 1.75012 14.3349 1 15.95 1C18.7956 1 21 3.18883 21 5.99455C21 7.71727 20.2248 9.36525 18.6505 11.2737C17.0654 13.1952 14.779 15.2547 11.9267 17.8175L11.9252 17.8188L11 18.6533L10.0748 17.8188Z" stroke="#E50000" stroke-width="2"/>
</svg>
