<svg width="19" height="20" viewBox="0 0 19 20" fill="none" xmlns="http://www.w3.org/2000/svg">
<path d="M2.28572 20C1.65714 20 1.11886 19.776 0.670859 19.328C0.222859 18.88 -0.000759964 18.3421 1.94034e-06 17.7143V7.42857C1.94034e-06 7.06667 0.0811446 6.72381 0.24343 6.4C0.405716 6.07619 0.629335 5.80952 0.914288 5.6L7.77143 0.457143C7.98095 0.304762 8.2 0.190476 8.42857 0.114286C8.65714 0.0380951 8.89524 0 9.14286 0C9.39048 0 9.62857 0.0380951 9.85714 0.114286C10.0857 0.190476 10.3048 0.304762 10.5143 0.457143L17.3714 5.6C17.6571 5.80952 17.8811 6.07619 18.0434 6.4C18.2057 6.72381 18.2865 7.06667 18.2857 7.42857V17.7143C18.2857 18.3429 18.0617 18.8811 17.6137 19.3291C17.1657 19.7771 16.6278 20.0008 16 20H11.4286V12H6.85714V20H2.28572Z" fill="#E6E6E6"/>
</svg>
