<svg width="129" height="100" viewBox="0 0 129 100" fill="none" xmlns="http://www.w3.org/2000/svg">
<path d="M64.7059 60C60.2941 60 56.5431 58.4569 53.4529 55.3706C50.3627 52.2843 48.8196 48.5333 48.8235 44.1176C48.8235 39.7059 50.3686 35.9549 53.4588 32.8647C56.549 29.7745 60.298 28.2314 64.7059 28.2353C69.1176 28.2353 72.8686 29.7804 75.9588 32.8706C79.049 35.9608 80.5921 39.7098 80.5882 44.1176C80.5882 48.5294 79.0451 52.2804 75.9588 55.3706C72.8725 58.4608 69.1216 60.0039 64.7059 60ZM64.7059 88.2353C50.3922 88.2353 37.3529 84.2392 25.5882 76.247C13.8235 68.2549 5.29412 57.5451 0 44.1176C5.29412 30.6863 13.8235 19.9745 25.5882 11.9824C37.3529 3.9902 50.3922 -0.00391868 64.7059 2.88492e-06C78.5294 2.88492e-06 91.1529 3.72549 102.576 11.1765C114 18.6274 122.553 28.6274 128.235 41.1765H105.882C103.137 41.1765 100.539 41.5196 98.0882 42.2059C95.6372 42.8921 93.3333 43.8725 91.1765 45.1471V44.1176C91.1765 36.7647 88.602 30.5137 83.4529 25.3647C78.3039 20.2157 72.0549 17.6431 64.7059 17.6471C57.3529 17.6471 51.102 20.2216 45.9529 25.3706C40.8039 30.5196 38.2314 36.7686 38.2353 44.1176C38.2353 51.4706 40.8098 57.7216 45.9588 62.8706C51.1078 68.0196 57.3569 70.5921 64.7059 70.5882C66.8627 70.5882 68.9471 70.3431 70.9588 69.8529C72.9706 69.3627 74.8569 68.6765 76.6176 67.7941C76.5196 68.2843 76.4706 68.751 76.4706 69.1941V87.2059C74.5098 87.5 72.549 87.7451 70.5882 87.9412C68.6274 88.1372 66.6667 88.2353 64.7059 88.2353ZM94.1176 100C92.451 100 91.0529 99.4353 89.9235 98.3059C88.7941 97.1764 88.2314 95.7804 88.2353 94.1176V76.4706C88.2353 74.8039 88.8 73.4059 89.9294 72.2765C91.0588 71.147 92.4549 70.5843 94.1176 70.5882V64.7059C94.1176 61.4706 95.2706 58.7 97.5765 56.3941C99.8823 54.0882 102.651 52.9372 105.882 52.9412C109.118 52.9412 111.888 54.0941 114.194 56.4C116.5 58.7059 117.651 61.4745 117.647 64.7059V70.5882C119.314 70.5882 120.712 71.1529 121.841 72.2823C122.971 73.4118 123.533 74.8078 123.529 76.4706V94.1176C123.529 95.7843 122.965 97.1823 121.835 98.3117C120.706 99.4411 119.31 100.004 117.647 100H94.1176ZM100 70.5882H111.765V64.7059C111.765 63.0392 111.2 61.6412 110.071 60.5118C108.941 59.3823 107.545 58.8196 105.882 58.8235C104.216 58.8235 102.818 59.3882 101.688 60.5176C100.559 61.647 99.9961 63.0431 100 64.7059V70.5882Z" fill="#E6E6E6"/>
</svg>
