<svg width="22" height="22" viewBox="0 0 22 22" fill="none" xmlns="http://www.w3.org/2000/svg">
<path d="M11 14.75L14.75 11M14.75 11L11 7.25M14.75 11H1M7.25 5.06125V5C7.25 3.6 7.25 2.9 7.5225 2.365C7.7625 1.89375 8.14375 1.5125 8.615 1.2725C9.15 1 9.85 1 11.25 1H17C18.4 1 19.1 1 19.6337 1.2725C20.105 1.5125 20.4875 1.89375 20.7275 2.365C21 2.89875 21 3.59875 21 4.99625V17.005C21 18.4025 21 19.1013 20.7275 19.635C20.4874 20.1055 20.1045 20.4879 19.6337 20.7275C19.1 21 18.4012 21 17.0037 21H11.2462C9.84875 21 9.14875 21 8.615 20.7275C8.14462 20.4878 7.76218 20.1054 7.5225 19.635C7.25 19.1 7.25 18.4 7.25 17V16.9375" stroke="#E6E6E6" stroke-width="2" stroke-linecap="round" stroke-linejoin="round"/>
</svg>
