<svg width="121" height="100" viewBox="0 0 121 100" fill="none" xmlns="http://www.w3.org/2000/svg">
<g clip-path="url(#clip0_405_151)">
<path d="M85.9722 95.2794C87.5148 96.7519 90.6299 97.0635 92.7938 95.7916C94.2121 94.9593 95.5061 93.905 96.8045 92.8849C98.4284 91.6044 100.082 90.388 102.113 89.8331C105.434 88.924 108.395 89.7606 111.056 91.8008C112.616 93.0002 114.038 94.3873 115.658 95.4928C116.536 96.0903 117.668 96.3934 118.73 96.6281C119.857 96.8757 120.564 97.4519 120.513 98.4336C120.457 99.4494 119.66 100.068 118.465 99.9958C115.868 99.8421 113.837 98.5061 111.934 96.8928C110.76 95.8983 109.625 94.8355 108.352 93.9818C106.026 92.4197 103.549 92.3599 101.179 93.8751C99.7653 94.7757 98.4756 95.8812 97.1558 96.9226C95.0262 98.6 92.7338 99.8506 89.9272 99.9061C86.8506 99.9659 84.3654 98.6 82.0901 96.7178C81.2546 96.0263 80.4361 95.3135 79.5834 94.6434C76.5069 92.2148 73.3361 92.2148 70.2595 94.6434C69.0512 95.5995 67.8857 96.6111 66.6559 97.5373C62.7695 100.47 58.3218 100.568 54.324 97.772C52.9699 96.8245 51.7273 95.7233 50.4247 94.6989C47.2667 92.2191 44.7129 92.2276 41.4993 94.6861C40.0938 95.7617 38.7012 96.8671 37.2144 97.819C33.1308 100.431 28.9788 100.286 24.9424 97.7549C23.1342 96.6239 21.4973 95.2239 19.7791 93.9477C19.1621 93.4867 18.545 93.0215 17.9152 92.5819C16.9725 91.9246 15.9612 91.7496 14.9372 92.3685C13.2061 93.4184 11.4921 94.4983 9.77814 95.5739C8.11131 96.6196 6.4959 97.7592 4.7648 98.6897C3.86497 99.172 2.7809 99.3939 1.75252 99.5262C0.758422 99.6543 0.0685532 98.9543 0.0128495 98.0494C-0.0471391 97.1019 0.561317 96.4446 1.58969 96.2696C2.11674 96.18 2.6952 96.0861 3.13654 95.8086C5.99029 94.0331 8.81403 92.202 11.7021 90.3581C10.6865 88.4374 9.79956 86.5893 8.74976 84.8436C7.74281 83.1662 8.74119 81.9156 10.3609 81.8388C15.2157 81.6083 20.0662 81.2412 24.9167 80.9296C34.3349 80.3278 43.7531 79.7303 53.1713 79.1242C59.8772 78.6931 66.5831 78.2577 73.2932 77.8266C82.7114 77.2206 92.1296 76.6145 101.548 76.0127C104.86 75.7992 108.168 75.5858 111.48 75.381C112.504 75.3169 113.168 75.6669 113.417 76.4352C113.687 77.2632 113.417 77.912 112.727 78.4626C106.227 83.6656 99.4097 88.3947 91.9754 92.202C89.9743 93.2264 87.9819 94.2635 85.9808 95.2965L85.9722 95.2794ZM12.6619 85.0271C13.2832 86.218 13.8274 87.2125 14.3287 88.2283C14.5687 88.7149 14.8815 88.7917 15.4171 88.749C16.1926 88.6892 17.0625 88.6338 17.7566 88.9155C18.9307 89.3935 20.0576 90.0465 21.0946 90.7807C22.8899 92.0441 24.5482 93.4995 26.365 94.733C29.6515 96.9696 32.7281 96.9013 36.0017 94.6221C37.36 93.6745 38.6455 92.6288 39.991 91.6642C44.173 88.6807 48.1451 88.749 52.2158 91.8691C53.4627 92.8252 54.6453 93.8581 55.8922 94.8099C58.7931 97.0208 61.8311 97.0208 64.7234 94.8227C65.7218 94.0629 66.673 93.2392 67.6457 92.4453C69.3725 91.0368 71.2407 89.9313 73.4989 89.5941C76.5669 89.1331 79.2149 90.1191 81.5459 91.9929C82.45 92.7227 83.1999 92.8764 84.2197 92.3428C86.2165 91.2971 88.2689 90.3581 90.27 89.3167C95.6218 86.5295 100.768 83.4052 105.567 79.7345C105.794 79.5595 106.008 79.3675 106.231 79.1839C106.201 79.1327 106.167 79.0815 106.137 79.0303C75.0457 81.0235 43.9545 83.0168 12.6704 85.0271H12.6619Z" fill="#E6E6E6"/>
<path d="M49.5415 68.0354C38.4522 68.0354 28.3527 71.2409 18.9688 76.9432C18.0432 77.5066 17.1434 77.4468 16.5692 76.7639C15.9565 76.0298 16.0208 75.2103 16.7835 74.3908C20.4642 70.4384 22.9195 65.7647 24.762 60.7539C27.6843 52.8064 28.7426 44.5645 28.3013 36.1433C28.0313 30.966 26.7759 25.9636 25.1519 21.0509C23.0609 14.7297 20.3485 8.6859 17.0706 2.88967C16.5007 1.8781 16.4964 1.14397 17.0534 0.525075C17.6148 -0.0980839 18.3346 -0.162107 19.4101 0.320201C29.5268 4.87012 38.615 10.9865 46.8763 18.3406C57.1515 27.4917 65.25 38.2945 71.2317 50.651C74.4368 57.2667 76.8964 64.1428 78.019 71.4457C78.1518 72.3164 78.139 73.1658 77.2563 73.6012C76.8492 73.8018 76.2193 73.8701 75.808 73.7036C69.9677 71.3774 63.9517 69.7 57.7214 68.8549C55.0048 68.4879 52.2667 68.3001 49.5373 68.0354H49.5415ZM74.274 69.5634C74.1969 69.1196 74.1754 68.8635 74.1069 68.6244C73.3013 65.8373 72.62 63.0032 71.6516 60.2715C68.5536 51.5302 64.0459 43.5316 58.5527 36.0708C49.5415 23.8381 38.2037 14.2474 24.9848 6.80362C24.1578 6.33838 23.3051 5.91583 22.4653 5.47194C22.4781 5.89022 22.6152 6.16339 22.7309 6.44509C24.522 10.7261 26.4331 14.9602 28.0613 19.301C29.7667 23.8423 30.8465 28.5715 31.4164 33.3989C32.0377 38.6402 31.7806 43.8645 31.0608 49.0803C30.2166 55.1881 28.5884 61.0654 25.8975 66.6312C25.2976 67.869 24.6377 69.0811 23.8964 70.5153C31.9992 66.8403 40.2476 64.7617 48.9674 64.8385C57.6272 64.9154 65.987 66.6483 74.2783 69.5634H74.274Z" fill="#E6E6E6"/>
<path d="M50.4286 12.1773C52.7253 12.4547 54.9021 13.3809 57.0102 14.4864C61.7493 16.9747 65.94 20.2356 69.9121 23.774C74.9468 28.2599 79.7288 33.0061 83.9837 38.2475C87.5916 42.6907 90.591 47.5394 93.3076 52.5631C96.4442 58.3636 99.1265 64.369 101.402 70.5536C101.462 70.7158 101.522 70.8737 101.577 71.0359C101.813 71.7359 101.779 72.4103 101.23 72.9396C100.652 73.4944 99.9621 73.5158 99.2379 73.217C98.0767 72.739 96.8941 72.3079 95.7414 71.8128C92.8834 70.5878 89.9483 70.353 86.9231 71.0402C86.6146 71.1085 86.3061 71.164 85.9933 71.2067C84.9821 71.3475 84.2579 70.8994 83.9837 69.9091C81.9012 62.3928 79.116 55.1368 75.7524 48.1114C72.2131 40.7188 68.3138 33.5311 62.9405 27.2526C59.0241 22.6771 54.5507 18.7034 49.5202 15.3699C48.7104 14.8321 48.4019 14.1406 48.6375 13.3467C48.8475 12.6382 49.5331 12.1645 50.4458 12.1773H50.4286ZM63.8104 23.1978C63.9346 23.3514 64.0675 23.5008 64.1874 23.6588C66.2528 26.3136 68.5066 28.8404 70.3448 31.6403C77.4792 42.5072 82.7025 54.2789 86.4989 66.6824C86.7474 67.4933 87.0645 67.6854 87.8658 67.5531C90.5996 67.1092 93.2776 67.3354 95.8743 68.347C96.2256 68.4835 96.5941 68.5732 97.0226 68.7055C90.2568 50.301 79.3046 35.1018 63.8146 23.1978H63.8104Z" fill="#E6E6E6"/>
</g>
<defs>
<clipPath id="clip0_405_151">
<rect width="120.513" height="100" fill="white"/>
</clipPath>
</defs>
</svg>
