<svg width="121" height="122" viewBox="0 0 121 122" fill="none" xmlns="http://www.w3.org/2000/svg">
<path d="M0 10C0 4.47716 4.47715 0 10 0H111C116.523 0 121 4.47715 121 10V112C121 117.523 116.523 122 111 122H10C4.47715 122 0 117.523 0 112V10Z" fill="#1B0273"/>
<path d="M75.9596 70.4729C75.9596 78.0742 72.0424 82.3179 64.2079 83.204V89.1498H57.2128V83.204C54.1816 82.9242 50.8007 82.2247 47.07 81.1054L48.5389 74.9498C56.8864 77.7012 62.6923 78.0509 65.9567 75.999C67.7287 74.8798 68.6381 73.1777 68.6847 70.8926C68.7314 68.5609 68.1718 66.9521 67.0059 66.066C65.8867 65.18 63.1353 64.1074 58.7517 62.8483C54.4148 61.5892 51.3603 59.9337 49.5882 57.8818C47.8627 55.7833 47 52.9619 47 49.4177C47 45.8736 48.1425 43.1222 50.4276 41.1636C52.7126 39.2049 55.1609 38.1323 57.7724 37.9458V32H64.8375V37.736C67.6355 37.8292 71.0164 38.5987 74.9803 40.0443L73.3714 46.2C68.7547 44.6611 64.9774 43.8916 62.0394 43.8916C61.9928 43.8916 61.8995 43.8916 61.7596 43.8916C56.7698 43.845 54.2749 45.7803 54.2749 49.6975C54.2749 52.9619 57.0263 55.3169 62.5291 56.7626C64.9074 57.4154 66.8427 58.045 68.335 58.6512C69.7806 59.2109 71.133 60.0036 72.3921 61.0296C74.7705 62.8949 75.9596 66.0427 75.9596 70.4729Z" fill="#E6E6E6"/>
</svg>
