<svg width="300" height="300" viewBox="0 0 300 300" fill="none" xmlns="http://www.w3.org/2000/svg">
<rect width="300" height="300" fill="#2E2F34"/>
<path d="M43 65L46.3915 51.0288H50.3802L53.665 65H51.3187L50.6575 62.3338H45.9222L45.3036 65H43ZM50.1882 60.3501L48.6098 53.0125H48.1405L46.3701 60.3501H50.1882ZM63.3915 50.7729V63.2296L63.6048 65L61.4505 65.2133L61.2585 64.2321C60.3342 64.9005 59.4312 65.2346 58.5496 65.2346C57.2271 65.2346 56.2317 64.8507 55.5634 64.0828C54.895 63.3007 54.5609 61.9854 54.5609 60.1368C54.5609 58.2882 54.9661 56.923 55.7767 56.0414C56.5872 55.1455 57.6395 54.6976 58.9335 54.6976C59.6872 54.6976 60.4479 54.8611 61.2158 55.1882V50.7729H63.3915ZM58.6989 63.1869C59.4525 63.1869 60.2915 62.803 61.2158 62.0351V57.2785C60.4764 56.923 59.7512 56.7453 59.0402 56.7453C57.6324 56.7453 56.9285 57.8758 56.9285 60.1368C56.9285 62.1702 57.5186 63.1869 58.6989 63.1869ZM74.0565 50.7729V63.2296L74.2698 65L72.1155 65.2133L71.9235 64.2321C70.9992 64.9005 70.0962 65.2346 69.2146 65.2346C67.8921 65.2346 66.8967 64.8507 66.2284 64.0828C65.56 63.3007 65.2259 61.9854 65.2259 60.1368C65.2259 58.2882 65.6311 56.923 66.4417 56.0414C67.2522 55.1455 68.3045 54.6976 69.5985 54.6976C70.3522 54.6976 71.1129 54.8611 71.8808 55.1882V50.7729H74.0565ZM69.3639 63.1869C70.1175 63.1869 70.9565 62.803 71.8808 62.0351V57.2785C71.1414 56.923 70.4162 56.7453 69.7052 56.7453C68.2974 56.7453 67.5935 57.8758 67.5935 60.1368C67.5935 62.1702 68.1836 63.1869 69.3639 63.1869ZM90.2673 63.1656C90.6654 63.1656 91.1063 63.0732 91.5897 62.8883C92.0732 62.7035 92.4572 62.4973 92.7416 62.2698V60.7767C91.8884 60.7056 91.1916 60.67 90.6512 60.67C89.471 60.67 88.8808 61.1108 88.8808 61.9925C88.8808 62.7746 89.343 63.1656 90.2673 63.1656ZM89.926 65.2346C87.6508 65.2346 86.5132 64.1539 86.5132 61.9925C86.5132 60.8406 86.8758 60.0372 87.601 59.5822C88.3405 59.1129 89.3572 58.8783 90.6512 58.8783C91.2627 58.8783 91.9595 58.9138 92.7416 58.9849C92.7416 58.1317 92.6207 57.5487 92.379 57.2359C92.1372 56.923 91.7177 56.7666 91.1205 56.7666C90.5232 56.7666 89.8265 56.8377 89.0301 56.9799C88.2338 57.1221 87.6224 57.2643 87.1958 57.4065L86.7905 55.3802C88.2836 54.9251 89.7411 54.6976 91.1631 54.6976C92.5851 54.6976 93.5663 55.0104 94.1067 55.6361C94.6613 56.2618 94.9386 57.3212 94.9386 58.8143V63.1443L95.1732 65.0213L92.9762 65.2346L92.7629 64.2534C91.5684 64.9076 90.6228 65.2346 89.926 65.2346ZM99.6525 54.8682L99.6951 55.4868C100.847 54.9607 101.75 54.6976 102.404 54.6976C103.556 54.6976 104.402 55.0389 104.942 55.7214C105.497 56.3898 105.774 57.4421 105.774 58.8783V65H103.577V58.9423C103.577 58.2597 103.456 57.7265 103.215 57.3425C102.973 56.9586 102.596 56.7666 102.084 56.7666C101.572 56.7666 100.783 57.0155 99.7165 57.5132V65H97.5195V54.8682H99.6525ZM118.7 59.9448C118.7 58.2242 119.084 56.923 119.852 56.0414C120.62 55.1455 121.686 54.6976 123.051 54.6976C124.417 54.6976 125.469 55.1029 126.208 55.9134C126.962 56.7097 127.353 57.8829 127.381 59.4329L127.296 61.0113H121.068C121.196 62.547 121.964 63.3149 123.371 63.3149C124.353 63.3149 125.391 63.1372 126.486 62.7817L126.934 64.6374C126.479 64.7938 125.888 64.9289 125.163 65.0427C124.438 65.1706 123.841 65.2346 123.371 65.2346C120.257 65.2346 118.7 63.4713 118.7 59.9448ZM123.137 56.6813C122.468 56.6813 121.964 56.8804 121.622 57.2785C121.295 57.6625 121.11 58.3095 121.068 59.2196H125.014C125.014 57.5274 124.388 56.6813 123.137 56.6813ZM128.96 54.8469H131.711L133.652 58.2597L135.572 54.8469H138.26L135.167 59.8595L138.473 65.0213H135.743L133.652 61.5019L131.583 65.0213H128.853L132.202 59.8595L128.96 54.8469ZM143.592 63.1656C143.99 63.1656 144.431 63.0732 144.915 62.8883C145.398 62.7035 145.782 62.4973 146.067 62.2698V60.7767C145.213 60.7056 144.517 60.67 143.976 60.67C142.796 60.67 142.206 61.1108 142.206 61.9925C142.206 62.7746 142.668 63.1656 143.592 63.1656ZM143.251 65.2346C140.976 65.2346 139.838 64.1539 139.838 61.9925C139.838 60.8406 140.201 60.0372 140.926 59.5822C141.665 59.1129 142.682 58.8783 143.976 58.8783C144.588 58.8783 145.284 58.9138 146.067 58.9849C146.067 58.1317 145.946 57.5487 145.704 57.2359C145.462 56.923 145.043 56.7666 144.445 56.7666C143.848 56.7666 143.151 56.8377 142.355 56.9799C141.559 57.1221 140.947 57.2643 140.521 57.4065L140.115 55.3802C141.609 54.9251 143.066 54.6976 144.488 54.6976C145.91 54.6976 146.891 55.0104 147.432 55.6361C147.986 56.2618 148.264 57.3212 148.264 58.8143V63.1443L148.498 65.0213L146.301 65.2346L146.088 64.2534C144.893 64.9076 143.948 65.2346 143.251 65.2346ZM152.231 54.8682L152.295 55.4442C152.835 54.9465 153.361 54.6976 153.873 54.6976C154.599 54.6976 155.146 54.9678 155.516 55.5081C156.255 54.9678 156.909 54.6976 157.478 54.6976C158.331 54.6976 158.936 54.9465 159.291 55.4442C159.661 55.9419 159.846 56.8662 159.846 58.2171V65H157.67V59.1556C157.67 57.8473 157.556 57.0937 157.329 56.8946C157.215 56.7808 157.052 56.724 156.838 56.724C156.625 56.724 156.355 56.8662 156.028 57.1506C156.099 57.4776 156.134 58.146 156.134 59.1556V61.5232H153.98V59.1556C153.98 57.8616 153.902 57.1079 153.745 56.8946C153.66 56.7808 153.511 56.724 153.297 56.724C153.098 56.724 152.793 56.8804 152.38 57.1932V65H150.141V54.8682H152.231ZM161.531 69.0954V56.7026L161.403 54.8682L163.536 54.7189L163.664 55.6575C164.617 55.0176 165.463 54.6976 166.202 54.6976C167.638 54.6976 168.691 55.1242 169.359 55.9774C170.041 56.8164 170.383 58.1317 170.383 59.9235C170.383 61.7152 169.97 63.0519 169.146 63.9335C168.321 64.8009 167.148 65.2346 165.626 65.2346C165.114 65.2346 164.481 65.0853 163.728 64.7867V69.0954H161.531ZM166.117 56.7453C165.463 56.7453 164.666 57.0581 163.728 57.6838V62.7603C164.41 63.059 165.029 63.2083 165.584 63.2083C167.205 63.2083 168.015 62.1276 168.015 59.9661C168.015 57.8047 167.382 56.7311 166.117 56.7453ZM172.366 65V63.0376H175.545V52.7566L172.793 52.7779L172.772 50.8369L177.742 50.8155V63.0376H180.749V65H172.366ZM182.69 59.9448C182.69 58.2242 183.074 56.923 183.842 56.0414C184.61 55.1455 185.676 54.6976 187.041 54.6976C188.407 54.6976 189.459 55.1029 190.198 55.9134C190.952 56.7097 191.343 57.8829 191.371 59.4329L191.286 61.0113H185.058C185.186 62.547 185.954 63.3149 187.361 63.3149C188.343 63.3149 189.381 63.1372 190.476 62.7817L190.924 64.6374C190.469 64.7938 189.878 64.9289 189.153 65.0427C188.428 65.1706 187.831 65.2346 187.361 65.2346C184.247 65.2346 182.69 63.4713 182.69 59.9448ZM187.127 56.6813C186.458 56.6813 185.954 56.8804 185.612 57.2785C185.285 57.6625 185.1 58.3095 185.058 59.2196H189.004C189.004 57.5274 188.378 56.6813 187.127 56.6813ZM204.276 65V63.0376H207.454V56.8306H204.447V54.8682H209.651V63.0376H212.659V65H204.276ZM208.435 53.3965C208.009 53.3965 207.668 53.2685 207.412 53.0125C207.17 52.7424 207.049 52.394 207.049 51.9674C207.049 51.5408 207.177 51.1995 207.433 50.9435C207.689 50.6876 208.03 50.5596 208.457 50.5596C208.898 50.5596 209.232 50.6876 209.459 50.9435C209.701 51.1853 209.822 51.5265 209.822 51.9674C209.822 52.4082 209.701 52.7566 209.459 53.0125C209.218 53.2685 208.876 53.3965 208.435 53.3965ZM216.221 54.8682L216.285 55.4442C216.825 54.9465 217.351 54.6976 217.863 54.6976C218.589 54.6976 219.136 54.9678 219.506 55.5081C220.245 54.9678 220.899 54.6976 221.468 54.6976C222.321 54.6976 222.926 54.9465 223.281 55.4442C223.651 55.9419 223.836 56.8662 223.836 58.2171V65H221.66V59.1556C221.66 57.8473 221.546 57.0937 221.319 56.8946C221.205 56.7808 221.042 56.724 220.828 56.724C220.615 56.724 220.345 56.8662 220.018 57.1506C220.089 57.4776 220.124 58.146 220.124 59.1556V61.5232H217.97V59.1556C217.97 57.8616 217.892 57.1079 217.735 56.8946C217.65 56.7808 217.501 56.724 217.287 56.724C217.088 56.724 216.783 56.8804 216.37 57.1932V65H214.131V54.8682H216.221ZM228.912 63.1656C229.31 63.1656 229.751 63.0732 230.235 62.8883C230.718 62.7035 231.102 62.4973 231.387 62.2698V60.7767C230.533 60.7056 229.837 60.67 229.296 60.67C228.116 60.67 227.526 61.1108 227.526 61.9925C227.526 62.7746 227.988 63.1656 228.912 63.1656ZM228.571 65.2346C226.296 65.2346 225.158 64.1539 225.158 61.9925C225.158 60.8406 225.521 60.0372 226.246 59.5822C226.985 59.1129 228.002 58.8783 229.296 58.8783C229.908 58.8783 230.604 58.9138 231.387 58.9849C231.387 58.1317 231.266 57.5487 231.024 57.2359C230.782 56.923 230.363 56.7666 229.765 56.7666C229.168 56.7666 228.471 56.8377 227.675 56.9799C226.879 57.1221 226.267 57.2643 225.841 57.4065L225.435 55.3802C226.929 54.9251 228.386 54.6976 229.808 54.6976C231.23 54.6976 232.211 55.0104 232.752 55.6361C233.306 56.2618 233.584 57.3212 233.584 58.8143V63.1443L233.818 65.0213L231.621 65.2346L231.408 64.2534C230.213 64.9076 229.268 65.2346 228.571 65.2346ZM244.611 62.547L244.91 65.4906C244.91 68.0218 243.154 69.2873 239.641 69.2873C238.603 69.2873 237.345 68.9958 235.866 68.4128L236.399 66.4718C237.807 67.0121 238.973 67.2823 239.897 67.2823C240.822 67.2823 241.511 67.1472 241.966 66.877C242.436 66.6069 242.67 66.1518 242.67 65.5119L242.457 63.9548C242.116 64.2392 241.668 64.4881 241.113 64.7014C240.573 64.9005 240.054 65 239.556 65C238.262 65 237.309 64.6089 236.698 63.8268C236.1 63.0305 235.802 61.7294 235.802 59.9235C235.802 56.468 237.238 54.7403 240.111 54.7403C240.95 54.7403 241.717 54.9607 242.414 55.4015L242.457 54.7403H244.611V62.547ZM240.303 56.724C239.492 56.724 238.909 56.9799 238.553 57.4918C238.198 57.9895 238.02 58.7645 238.02 59.8168C238.02 60.8691 238.155 61.6654 238.425 62.2058C238.696 62.7461 239.179 63.0163 239.876 63.0163C240.573 63.0163 241.419 62.6039 242.414 61.7792V57.2999C241.831 56.9159 241.127 56.724 240.303 56.724ZM246.68 59.9448C246.68 58.2242 247.064 56.923 247.832 56.0414C248.6 55.1455 249.666 54.6976 251.031 54.6976C252.397 54.6976 253.449 55.1029 254.188 55.9134C254.942 56.7097 255.333 57.8829 255.361 59.4329L255.276 61.0113H249.048C249.176 62.547 249.944 63.3149 251.351 63.3149C252.333 63.3149 253.371 63.1372 254.466 62.7817L254.914 64.6374C254.459 64.7938 253.868 64.9289 253.143 65.0427C252.418 65.1706 251.821 65.2346 251.351 65.2346C248.237 65.2346 246.68 63.4713 246.68 59.9448ZM251.117 56.6813C250.448 56.6813 249.944 56.8804 249.602 57.2785C249.275 57.6625 249.09 58.3095 249.048 59.2196H252.994C252.994 57.5274 252.368 56.6813 251.117 56.6813Z" fill="#838383"/>
<path d="M112.5 200C109.063 200 106.119 198.775 103.669 196.325C101.219 193.875 99.9958 190.933 100 187.5V168.75H112.5V187.5H187.5V168.75H200V187.5C200 190.937 198.775 193.881 196.325 196.331C193.875 198.781 190.933 200.004 187.5 200H112.5ZM143.75 175V124.062L127.5 140.312L118.75 131.25L150 100L181.25 131.25L172.5 140.312L156.25 124.062V175H143.75Z" fill="#838383"/>
</svg>
