<svg width="1200" height="200" viewBox="0 0 1200 200" fill="none" xmlns="http://www.w3.org/2000/svg">
<rect width="1200" height="200" fill="#2E2F34"/>
<path d="M571.375 137C568.797 137 566.589 136.081 564.752 134.244C562.914 132.406 561.997 130.2 562 127.625V113.562H571.375V127.625H627.625V113.562H637V127.625C637 130.203 636.081 132.411 634.244 134.248C632.406 136.086 630.2 137.003 627.625 137H571.375ZM594.813 118.25V80.0469L582.625 92.2344L576.063 85.4375L599.5 62L622.938 85.4375L616.375 92.2344L604.188 80.0469V118.25H594.813Z" fill="#838383"/>
<path d="M488.555 39.3074V30.0288H490.794V39.0514C490.794 40.1464 490.972 40.9427 491.327 41.4404C491.669 41.9381 492.323 42.1869 493.29 42.1869C494.257 42.1869 494.925 41.9452 495.295 41.4617C495.665 40.9782 495.849 40.1748 495.849 39.0514V30.0288H498.089V39.3074C498.089 40.9711 497.726 42.2012 497.001 42.9975C496.29 43.7938 495.039 44.192 493.247 44.192C491.455 44.192 490.225 43.7867 489.557 42.9762C488.889 42.1656 488.555 40.9427 488.555 39.3074ZM499.881 48.0954V35.7026L499.753 33.8682L501.886 33.7189L502.014 34.6575C502.967 34.0176 503.813 33.6976 504.552 33.6976C505.988 33.6976 507.041 34.1242 507.709 34.9774C508.391 35.8164 508.733 37.1317 508.733 38.9235C508.733 40.7152 508.32 42.0519 507.496 42.9335C506.671 43.8009 505.498 44.2346 503.976 44.2346C503.464 44.2346 502.831 44.0853 502.078 43.7867V48.0954H499.881ZM504.467 35.7453C503.813 35.7453 503.016 36.0581 502.078 36.6838V41.7603C502.76 42.059 503.379 42.2083 503.934 42.2083C505.555 42.2083 506.365 41.1276 506.365 38.9661C506.365 36.8047 505.732 35.7311 504.467 35.7453ZM510.716 44V42.0376H513.895V31.7566L511.143 31.7779L511.122 29.8369L516.092 29.8155V42.0376H519.099V44H510.716ZM521.979 34.9987C522.704 34.1313 523.82 33.6976 525.327 33.6976C526.835 33.6976 527.951 34.1313 528.676 34.9987C529.402 35.8519 529.764 37.1744 529.764 38.9661C529.764 40.7578 529.402 42.0945 528.676 42.9762C527.951 43.8436 526.835 44.2773 525.327 44.2773C523.82 44.2773 522.704 43.8436 521.979 42.9762C521.253 42.0945 520.891 40.7578 520.891 38.9661C520.891 37.1744 521.253 35.8519 521.979 34.9987ZM523.685 36.5132C523.401 37.0109 523.258 37.8285 523.258 38.9661C523.258 40.1037 523.408 40.9285 523.706 41.4404C524.005 41.9523 524.545 42.2083 525.327 42.2083C526.11 42.2083 526.65 41.9523 526.949 41.4404C527.247 40.9285 527.397 40.1037 527.397 38.9661C527.397 37.8285 527.247 37.0109 526.949 36.5132C526.664 36.0155 526.124 35.7666 525.327 35.7666C524.531 35.7666 523.984 36.0155 523.685 36.5132ZM535.267 42.1656C535.665 42.1656 536.106 42.0732 536.59 41.8883C537.073 41.7035 537.457 41.4973 537.742 41.2698V39.7767C536.888 39.7056 536.192 39.67 535.651 39.67C534.471 39.67 533.881 40.1108 533.881 40.9925C533.881 41.7746 534.343 42.1656 535.267 42.1656ZM534.926 44.2346C532.651 44.2346 531.513 43.1539 531.513 40.9925C531.513 39.8406 531.876 39.0372 532.601 38.5822C533.34 38.1129 534.357 37.8783 535.651 37.8783C536.263 37.8783 536.959 37.9138 537.742 37.9849C537.742 37.1317 537.621 36.5487 537.379 36.2359C537.137 35.923 536.718 35.7666 536.12 35.7666C535.523 35.7666 534.826 35.8377 534.03 35.9799C533.234 36.1221 532.622 36.2643 532.196 36.4065L531.79 34.3802C533.284 33.9251 534.741 33.6976 536.163 33.6976C537.585 33.6976 538.566 34.0104 539.107 34.6361C539.661 35.2618 539.939 36.3212 539.939 37.8143V42.1443L540.173 44.0213L537.976 44.2346L537.763 43.2534C536.568 43.9076 535.623 44.2346 534.926 44.2346ZM551.051 29.7729V42.2296L551.265 44L549.11 44.2133L548.918 43.2321C547.994 43.9005 547.091 44.2346 546.21 44.2346C544.887 44.2346 543.892 43.8507 543.223 43.0828C542.555 42.3007 542.221 40.9854 542.221 39.1368C542.221 37.2882 542.626 35.923 543.437 35.0414C544.247 34.1455 545.299 33.6976 546.594 33.6976C547.347 33.6976 548.108 33.8611 548.876 34.1882V29.7729H551.051ZM546.359 42.1869C547.113 42.1869 547.952 41.803 548.876 41.0351V36.2785C548.136 35.923 547.411 35.7453 546.7 35.7453C545.292 35.7453 544.588 36.8758 544.588 39.1368C544.588 41.1702 545.179 42.1869 546.359 42.1869ZM567.262 42.1656C567.66 42.1656 568.101 42.0732 568.585 41.8883C569.068 41.7035 569.452 41.4973 569.737 41.2698V39.7767C568.883 39.7056 568.187 39.67 567.646 39.67C566.466 39.67 565.876 40.1108 565.876 40.9925C565.876 41.7746 566.338 42.1656 567.262 42.1656ZM566.921 44.2346C564.646 44.2346 563.508 43.1539 563.508 40.9925C563.508 39.8406 563.871 39.0372 564.596 38.5822C565.335 38.1129 566.352 37.8783 567.646 37.8783C568.258 37.8783 568.954 37.9138 569.737 37.9849C569.737 37.1317 569.616 36.5487 569.374 36.2359C569.132 35.923 568.713 35.7666 568.115 35.7666C567.518 35.7666 566.821 35.8377 566.025 35.9799C565.229 36.1221 564.617 36.2643 564.191 36.4065L563.785 34.3802C565.279 33.9251 566.736 33.6976 568.158 33.6976C569.58 33.6976 570.561 34.0104 571.102 34.6361C571.656 35.2618 571.934 36.3212 571.934 37.8143V42.1443L572.168 44.0213L569.971 44.2346L569.758 43.2534C568.563 43.9076 567.618 44.2346 566.921 44.2346ZM587.376 36.5345V44H585.179V29.7729H587.376V34.4655C588.528 33.9536 589.431 33.6976 590.085 33.6976C591.308 33.6976 592.169 34.0531 592.666 34.7641C593.178 35.4751 593.434 36.5132 593.434 37.8783V44H591.237V37.8356C591.237 37.2384 591.116 36.7478 590.875 36.3639C590.647 35.9657 590.341 35.7666 589.957 35.7666C589.261 35.7666 588.4 36.0226 587.376 36.5345ZM595.695 38.9448C595.695 37.2242 596.079 35.923 596.847 35.0414C597.615 34.1455 598.681 33.6976 600.046 33.6976C601.412 33.6976 602.464 34.1029 603.203 34.9134C603.957 35.7097 604.348 36.8829 604.376 38.4329L604.291 40.0113H598.063C598.191 41.547 598.959 42.3149 600.366 42.3149C601.348 42.3149 602.386 42.1372 603.481 41.7817L603.929 43.6374C603.474 43.7938 602.883 43.9289 602.158 44.0427C601.433 44.1706 600.836 44.2346 600.366 44.2346C597.252 44.2346 595.695 42.4713 595.695 38.9448ZM600.132 35.6813C599.463 35.6813 598.959 35.8804 598.617 36.2785C598.29 36.6625 598.105 37.3095 598.063 38.2196H602.009C602.009 36.5274 601.383 35.6813 600.132 35.6813ZM609.922 42.1656C610.32 42.1656 610.761 42.0732 611.245 41.8883C611.728 41.7035 612.112 41.4973 612.397 41.2698V39.7767C611.543 39.7056 610.847 39.67 610.306 39.67C609.126 39.67 608.536 40.1108 608.536 40.9925C608.536 41.7746 608.998 42.1656 609.922 42.1656ZM609.581 44.2346C607.306 44.2346 606.168 43.1539 606.168 40.9925C606.168 39.8406 606.531 39.0372 607.256 38.5822C607.995 38.1129 609.012 37.8783 610.306 37.8783C610.918 37.8783 611.614 37.9138 612.397 37.9849C612.397 37.1317 612.276 36.5487 612.034 36.2359C611.792 35.923 611.373 35.7666 610.775 35.7666C610.178 35.7666 609.481 35.8377 608.685 35.9799C607.889 36.1221 607.277 36.2643 606.851 36.4065L606.445 34.3802C607.939 33.9251 609.396 33.6976 610.818 33.6976C612.24 33.6976 613.221 34.0104 613.762 34.6361C614.316 35.2618 614.594 36.3212 614.594 37.8143V42.1443L614.828 44.0213L612.631 44.2346L612.418 43.2534C611.223 43.9076 610.278 44.2346 609.581 44.2346ZM625.706 29.7729V42.2296L625.92 44L623.765 44.2133L623.573 43.2321C622.649 43.9005 621.746 44.2346 620.865 44.2346C619.542 44.2346 618.547 43.8507 617.878 43.0828C617.21 42.3007 616.876 40.9854 616.876 39.1368C616.876 37.2882 617.281 35.923 618.092 35.0414C618.902 34.1455 619.954 33.6976 621.249 33.6976C622.002 33.6976 622.763 33.8611 623.531 34.1882V29.7729H625.706ZM621.014 42.1869C621.768 42.1869 622.607 41.803 623.531 41.0351V36.2785C622.791 35.923 622.066 35.7453 621.355 35.7453C619.947 35.7453 619.243 36.8758 619.243 39.1368C619.243 41.1702 619.834 42.1869 621.014 42.1869ZM627.69 38.9448C627.69 37.2242 628.074 35.923 628.842 35.0414C629.61 34.1455 630.676 33.6976 632.041 33.6976C633.407 33.6976 634.459 34.1029 635.198 34.9134C635.952 35.7097 636.343 36.8829 636.371 38.4329L636.286 40.0113H630.058C630.186 41.547 630.954 42.3149 632.361 42.3149C633.343 42.3149 634.381 42.1372 635.476 41.7817L635.924 43.6374C635.469 43.7938 634.878 43.9289 634.153 44.0427C633.428 44.1706 632.831 44.2346 632.361 44.2346C629.247 44.2346 627.69 42.4713 627.69 38.9448ZM632.127 35.6813C631.458 35.6813 630.954 35.8804 630.612 36.2785C630.285 36.6625 630.1 37.3095 630.058 38.2196H634.004C634.004 36.5274 633.378 35.6813 632.127 35.6813ZM638.611 44V42.0376H640.68V35.8306H638.611V33.8682H642.877L642.92 34.8921C644.001 34.2806 645.238 33.8967 646.631 33.7403H647.207V35.8733H646.631C645.067 36.0155 643.83 36.3425 642.92 36.8544V42.0803H646.098V44H638.611ZM659.941 44V42.0376H663.119V35.8306H660.112V33.8682H665.316V42.0376H668.324V44H659.941ZM664.1 32.3965C663.674 32.3965 663.333 32.2685 663.077 32.0125C662.835 31.7424 662.714 31.394 662.714 30.9674C662.714 30.5408 662.842 30.1995 663.098 29.9435C663.354 29.6876 663.695 29.5596 664.122 29.5596C664.563 29.5596 664.897 29.6876 665.124 29.9435C665.366 30.1853 665.487 30.5265 665.487 30.9674C665.487 31.4082 665.366 31.7566 665.124 32.0125C664.883 32.2685 664.541 32.3965 664.1 32.3965ZM671.886 33.8682L671.95 34.4442C672.49 33.9465 673.016 33.6976 673.528 33.6976C674.254 33.6976 674.801 33.9678 675.171 34.5081C675.91 33.9678 676.564 33.6976 677.133 33.6976C677.986 33.6976 678.591 33.9465 678.946 34.4442C679.316 34.9419 679.501 35.8662 679.501 37.2171V44H677.325V38.1556C677.325 36.8473 677.211 36.0937 676.984 35.8946C676.87 35.7808 676.707 35.724 676.493 35.724C676.28 35.724 676.01 35.8662 675.683 36.1506C675.754 36.4776 675.789 37.146 675.789 38.1556V40.5232H673.635V38.1556C673.635 36.8616 673.557 36.1079 673.4 35.8946C673.315 35.7808 673.166 35.724 672.952 35.724C672.753 35.724 672.448 35.8804 672.035 36.1932V44H669.796V33.8682H671.886ZM684.577 42.1656C684.975 42.1656 685.416 42.0732 685.9 41.8883C686.383 41.7035 686.767 41.4973 687.052 41.2698V39.7767C686.198 39.7056 685.502 39.67 684.961 39.67C683.781 39.67 683.191 40.1108 683.191 40.9925C683.191 41.7746 683.653 42.1656 684.577 42.1656ZM684.236 44.2346C681.961 44.2346 680.823 43.1539 680.823 40.9925C680.823 39.8406 681.186 39.0372 681.911 38.5822C682.65 38.1129 683.667 37.8783 684.961 37.8783C685.573 37.8783 686.269 37.9138 687.052 37.9849C687.052 37.1317 686.931 36.5487 686.689 36.2359C686.447 35.923 686.028 35.7666 685.43 35.7666C684.833 35.7666 684.136 35.8377 683.34 35.9799C682.544 36.1221 681.932 36.2643 681.506 36.4065L681.1 34.3802C682.594 33.9251 684.051 33.6976 685.473 33.6976C686.895 33.6976 687.876 34.0104 688.417 34.6361C688.971 35.2618 689.249 36.3212 689.249 37.8143V42.1443L689.483 44.0213L687.286 44.2346L687.073 43.2534C685.878 43.9076 684.933 44.2346 684.236 44.2346ZM700.276 41.547L700.575 44.4906C700.575 47.0218 698.819 48.2873 695.306 48.2873C694.268 48.2873 693.01 47.9958 691.531 47.4128L692.064 45.4718C693.472 46.0121 694.638 46.2823 695.562 46.2823C696.487 46.2823 697.176 46.1472 697.631 45.877C698.1 45.6069 698.335 45.1518 698.335 44.5119L698.122 42.9548C697.781 43.2392 697.333 43.4881 696.778 43.7014C696.238 43.9005 695.719 44 695.221 44C693.927 44 692.974 43.6089 692.363 42.8268C691.765 42.0305 691.467 40.7294 691.467 38.9235C691.467 35.468 692.903 33.7403 695.776 33.7403C696.615 33.7403 697.382 33.9607 698.079 34.4015L698.122 33.7403H700.276V41.547ZM695.967 35.724C695.157 35.724 694.574 35.9799 694.218 36.4918C693.863 36.9895 693.685 37.7645 693.685 38.8168C693.685 39.8691 693.82 40.6654 694.09 41.2058C694.361 41.7461 694.844 42.0163 695.541 42.0163C696.238 42.0163 697.084 41.6039 698.079 40.7792V36.2999C697.496 35.9159 696.792 35.724 695.967 35.724ZM702.345 38.9448C702.345 37.2242 702.729 35.923 703.497 35.0414C704.265 34.1455 705.331 33.6976 706.696 33.6976C708.062 33.6976 709.114 34.1029 709.853 34.9134C710.607 35.7097 710.998 36.8829 711.026 38.4329L710.941 40.0113H704.713C704.841 41.547 705.609 42.3149 707.016 42.3149C707.998 42.3149 709.036 42.1372 710.131 41.7817L710.579 43.6374C710.124 43.7938 709.533 43.9289 708.808 44.0427C708.083 44.1706 707.486 44.2346 707.016 44.2346C703.902 44.2346 702.345 42.4713 702.345 38.9448ZM706.782 35.6813C706.113 35.6813 705.609 35.8804 705.267 36.2785C704.94 36.6625 704.755 37.3095 704.713 38.2196H708.659C708.659 36.5274 708.033 35.6813 706.782 35.6813Z" fill="#838383"/>
<path d="M470.824 173V161.8H475.016C475.965 161.8 476.781 161.955 477.464 162.264C478.147 162.563 478.669 163 479.032 163.576C479.405 164.141 479.592 164.829 479.592 165.64C479.592 166.429 479.405 167.112 479.032 167.688C478.669 168.253 478.147 168.691 477.464 169C476.781 169.299 475.965 169.448 475.016 169.448H471.48L472.008 168.904V173H470.824ZM478.472 173L475.592 168.936H476.872L479.768 173H478.472ZM472.008 169L471.48 168.44H474.984C476.104 168.44 476.952 168.195 477.528 167.704C478.115 167.213 478.408 166.525 478.408 165.64C478.408 164.744 478.115 164.051 477.528 163.56C476.952 163.069 476.104 162.824 474.984 162.824H471.48L472.008 162.264V169ZM485.715 173.08C484.84 173.08 484.072 172.899 483.411 172.536C482.749 172.163 482.232 171.656 481.859 171.016C481.485 170.365 481.299 169.624 481.299 168.792C481.299 167.96 481.475 167.224 481.827 166.584C482.189 165.944 482.68 165.443 483.299 165.08C483.928 164.707 484.632 164.52 485.411 164.52C486.2 164.52 486.899 164.701 487.507 165.064C488.125 165.416 488.611 165.917 488.963 166.568C489.315 167.208 489.491 167.949 489.491 168.792C489.491 168.845 489.485 168.904 489.475 168.968C489.475 169.021 489.475 169.08 489.475 169.144H482.163V168.296H488.867L488.419 168.632C488.419 168.024 488.285 167.485 488.019 167.016C487.763 166.536 487.411 166.163 486.963 165.896C486.515 165.629 485.997 165.496 485.411 165.496C484.835 165.496 484.317 165.629 483.859 165.896C483.4 166.163 483.043 166.536 482.787 167.016C482.531 167.496 482.403 168.045 482.403 168.664V168.84C482.403 169.48 482.541 170.045 482.819 170.536C483.107 171.016 483.501 171.395 484.003 171.672C484.515 171.939 485.096 172.072 485.747 172.072C486.259 172.072 486.733 171.981 487.171 171.8C487.619 171.619 488.003 171.341 488.323 170.968L488.963 171.704C488.589 172.152 488.12 172.493 487.555 172.728C487 172.963 486.387 173.08 485.715 173.08ZM495.291 173.08C494.459 173.08 493.712 172.899 493.051 172.536C492.4 172.163 491.888 171.656 491.515 171.016C491.141 170.365 490.955 169.624 490.955 168.792C490.955 167.949 491.141 167.208 491.515 166.568C491.888 165.928 492.4 165.427 493.051 165.064C493.712 164.701 494.459 164.52 495.291 164.52C496.005 164.52 496.651 164.659 497.227 164.936C497.803 165.213 498.256 165.629 498.587 166.184L497.739 166.76C497.451 166.333 497.093 166.019 496.667 165.816C496.24 165.613 495.776 165.512 495.275 165.512C494.677 165.512 494.139 165.651 493.659 165.928C493.179 166.195 492.8 166.573 492.523 167.064C492.245 167.555 492.107 168.131 492.107 168.792C492.107 169.453 492.245 170.029 492.523 170.52C492.8 171.011 493.179 171.395 493.659 171.672C494.139 171.939 494.677 172.072 495.275 172.072C495.776 172.072 496.24 171.971 496.667 171.768C497.093 171.565 497.451 171.256 497.739 170.84L498.587 171.416C498.256 171.96 497.803 172.376 497.227 172.664C496.651 172.941 496.005 173.08 495.291 173.08ZM504.102 173.08C503.291 173.08 502.56 172.899 501.91 172.536C501.27 172.163 500.763 171.656 500.39 171.016C500.016 170.365 499.83 169.624 499.83 168.792C499.83 167.949 500.016 167.208 500.39 166.568C500.763 165.928 501.27 165.427 501.91 165.064C502.55 164.701 503.28 164.52 504.102 164.52C504.934 164.52 505.67 164.701 506.31 165.064C506.96 165.427 507.467 165.928 507.83 166.568C508.203 167.208 508.39 167.949 508.39 168.792C508.39 169.624 508.203 170.365 507.83 171.016C507.467 171.656 506.96 172.163 506.31 172.536C505.659 172.899 504.923 173.08 504.102 173.08ZM504.102 172.072C504.71 172.072 505.248 171.939 505.718 171.672C506.187 171.395 506.555 171.011 506.822 170.52C507.099 170.019 507.238 169.443 507.238 168.792C507.238 168.131 507.099 167.555 506.822 167.064C506.555 166.573 506.187 166.195 505.718 165.928C505.248 165.651 504.715 165.512 504.118 165.512C503.52 165.512 502.987 165.651 502.518 165.928C502.048 166.195 501.675 166.573 501.398 167.064C501.12 167.555 500.982 168.131 500.982 168.792C500.982 169.443 501.12 170.019 501.398 170.52C501.675 171.011 502.048 171.395 502.518 171.672C502.987 171.939 503.515 172.072 504.102 172.072ZM521.205 164.52C521.888 164.52 522.48 164.653 522.981 164.92C523.493 165.176 523.888 165.571 524.165 166.104C524.453 166.637 524.597 167.309 524.597 168.12V173H523.461V168.232C523.461 167.347 523.248 166.68 522.821 166.232C522.405 165.773 521.813 165.544 521.045 165.544C520.469 165.544 519.968 165.667 519.541 165.912C519.125 166.147 518.8 166.493 518.565 166.952C518.341 167.4 518.229 167.944 518.229 168.584V173H517.093V168.232C517.093 167.347 516.88 166.68 516.453 166.232C516.026 165.773 515.429 165.544 514.661 165.544C514.096 165.544 513.6 165.667 513.173 165.912C512.746 166.147 512.416 166.493 512.181 166.952C511.957 167.4 511.845 167.944 511.845 168.584V173H510.709V164.6H511.797V166.872L511.621 166.472C511.877 165.864 512.288 165.389 512.853 165.048C513.429 164.696 514.106 164.52 514.885 164.52C515.706 164.52 516.405 164.728 516.981 165.144C517.557 165.549 517.93 166.163 518.101 166.984L517.653 166.808C517.898 166.125 518.33 165.576 518.949 165.16C519.578 164.733 520.33 164.52 521.205 164.52ZM538.174 164.52C538.856 164.52 539.448 164.653 539.95 164.92C540.462 165.176 540.856 165.571 541.134 166.104C541.422 166.637 541.566 167.309 541.566 168.12V173H540.43V168.232C540.43 167.347 540.216 166.68 539.79 166.232C539.374 165.773 538.782 165.544 538.014 165.544C537.438 165.544 536.936 165.667 536.51 165.912C536.094 166.147 535.768 166.493 535.534 166.952C535.31 167.4 535.198 167.944 535.198 168.584V173H534.062V168.232C534.062 167.347 533.848 166.68 533.422 166.232C532.995 165.773 532.398 165.544 531.63 165.544C531.064 165.544 530.568 165.667 530.142 165.912C529.715 166.147 529.384 166.493 529.15 166.952C528.926 167.4 528.814 167.944 528.814 168.584V173H527.678V164.6H528.766V166.872L528.59 166.472C528.846 165.864 529.256 165.389 529.822 165.048C530.398 164.696 531.075 164.52 531.854 164.52C532.675 164.52 533.374 164.728 533.95 165.144C534.526 165.549 534.899 166.163 535.07 166.984L534.622 166.808C534.867 166.125 535.299 165.576 535.918 165.16C536.547 164.733 537.299 164.52 538.174 164.52ZM548.215 173.08C547.34 173.08 546.572 172.899 545.911 172.536C545.249 172.163 544.732 171.656 544.359 171.016C543.985 170.365 543.799 169.624 543.799 168.792C543.799 167.96 543.975 167.224 544.327 166.584C544.689 165.944 545.18 165.443 545.799 165.08C546.428 164.707 547.132 164.52 547.911 164.52C548.7 164.52 549.399 164.701 550.007 165.064C550.625 165.416 551.111 165.917 551.463 166.568C551.815 167.208 551.991 167.949 551.991 168.792C551.991 168.845 551.985 168.904 551.975 168.968C551.975 169.021 551.975 169.08 551.975 169.144H544.663V168.296H551.367L550.919 168.632C550.919 168.024 550.785 167.485 550.519 167.016C550.263 166.536 549.911 166.163 549.463 165.896C549.015 165.629 548.497 165.496 547.911 165.496C547.335 165.496 546.817 165.629 546.359 165.896C545.9 166.163 545.543 166.536 545.287 167.016C545.031 167.496 544.903 168.045 544.903 168.664V168.84C544.903 169.48 545.041 170.045 545.319 170.536C545.607 171.016 546.001 171.395 546.503 171.672C547.015 171.939 547.596 172.072 548.247 172.072C548.759 172.072 549.233 171.981 549.671 171.8C550.119 171.619 550.503 171.341 550.823 170.968L551.463 171.704C551.089 172.152 550.62 172.493 550.055 172.728C549.5 172.963 548.887 173.08 548.215 173.08ZM558.591 164.52C559.273 164.52 559.871 164.653 560.383 164.92C560.905 165.176 561.311 165.571 561.599 166.104C561.897 166.637 562.047 167.309 562.047 168.12V173H560.911V168.232C560.911 167.347 560.687 166.68 560.239 166.232C559.801 165.773 559.183 165.544 558.383 165.544C557.785 165.544 557.263 165.667 556.815 165.912C556.377 166.147 556.036 166.493 555.791 166.952C555.556 167.4 555.439 167.944 555.439 168.584V173H554.303V164.6H555.391V166.904L555.215 166.472C555.481 165.864 555.908 165.389 556.495 165.048C557.081 164.696 557.78 164.52 558.591 164.52ZM568.459 173.08C567.659 173.08 566.939 172.899 566.299 172.536C565.67 172.173 565.174 171.672 564.811 171.032C564.449 170.381 564.267 169.635 564.267 168.792C564.267 167.939 564.449 167.192 564.811 166.552C565.174 165.912 565.67 165.416 566.299 165.064C566.939 164.701 567.659 164.52 568.459 164.52C569.195 164.52 569.851 164.685 570.427 165.016C571.014 165.347 571.478 165.832 571.819 166.472C572.171 167.101 572.347 167.875 572.347 168.792C572.347 169.699 572.177 170.472 571.835 171.112C571.494 171.752 571.03 172.243 570.443 172.584C569.867 172.915 569.206 173.08 568.459 173.08ZM568.539 172.072C569.137 172.072 569.67 171.939 570.139 171.672C570.619 171.395 570.993 171.011 571.259 170.52C571.537 170.019 571.675 169.443 571.675 168.792C571.675 168.131 571.537 167.555 571.259 167.064C570.993 166.573 570.619 166.195 570.139 165.928C569.67 165.651 569.137 165.512 568.539 165.512C567.953 165.512 567.425 165.651 566.955 165.928C566.486 166.195 566.113 166.573 565.835 167.064C565.558 167.555 565.419 168.131 565.419 168.792C565.419 169.443 565.558 170.019 565.835 170.52C566.113 171.011 566.486 171.395 566.955 171.672C567.425 171.939 567.953 172.072 568.539 172.072ZM571.707 173V170.472L571.819 168.776L571.659 167.08V161.128H572.795V173H571.707ZM579.527 173.08C578.652 173.08 577.884 172.899 577.223 172.536C576.562 172.163 576.044 171.656 575.671 171.016C575.298 170.365 575.111 169.624 575.111 168.792C575.111 167.96 575.287 167.224 575.639 166.584C576.002 165.944 576.492 165.443 577.111 165.08C577.74 164.707 578.444 164.52 579.223 164.52C580.012 164.52 580.711 164.701 581.319 165.064C581.938 165.416 582.423 165.917 582.775 166.568C583.127 167.208 583.303 167.949 583.303 168.792C583.303 168.845 583.298 168.904 583.287 168.968C583.287 169.021 583.287 169.08 583.287 169.144H575.975V168.296H582.679L582.231 168.632C582.231 168.024 582.098 167.485 581.831 167.016C581.575 166.536 581.223 166.163 580.775 165.896C580.327 165.629 579.81 165.496 579.223 165.496C578.647 165.496 578.13 165.629 577.671 165.896C577.212 166.163 576.855 166.536 576.599 167.016C576.343 167.496 576.215 168.045 576.215 168.664V168.84C576.215 169.48 576.354 170.045 576.631 170.536C576.919 171.016 577.314 171.395 577.815 171.672C578.327 171.939 578.908 172.072 579.559 172.072C580.071 172.072 580.546 171.981 580.983 171.8C581.431 171.619 581.815 171.341 582.135 170.968L582.775 171.704C582.402 172.152 581.932 172.493 581.367 172.728C580.812 172.963 580.199 173.08 579.527 173.08ZM588.959 173.08C588.159 173.08 587.439 172.899 586.799 172.536C586.17 172.173 585.674 171.672 585.311 171.032C584.949 170.381 584.767 169.635 584.767 168.792C584.767 167.939 584.949 167.192 585.311 166.552C585.674 165.912 586.17 165.416 586.799 165.064C587.439 164.701 588.159 164.52 588.959 164.52C589.695 164.52 590.351 164.685 590.927 165.016C591.514 165.347 591.978 165.832 592.319 166.472C592.671 167.101 592.847 167.875 592.847 168.792C592.847 169.699 592.677 170.472 592.335 171.112C591.994 171.752 591.53 172.243 590.943 172.584C590.367 172.915 589.706 173.08 588.959 173.08ZM589.039 172.072C589.637 172.072 590.17 171.939 590.639 171.672C591.119 171.395 591.493 171.011 591.759 170.52C592.037 170.019 592.175 169.443 592.175 168.792C592.175 168.131 592.037 167.555 591.759 167.064C591.493 166.573 591.119 166.195 590.639 165.928C590.17 165.651 589.637 165.512 589.039 165.512C588.453 165.512 587.925 165.651 587.455 165.928C586.986 166.195 586.613 166.573 586.335 167.064C586.058 167.555 585.919 168.131 585.919 168.792C585.919 169.443 586.058 170.019 586.335 170.52C586.613 171.011 586.986 171.395 587.455 171.672C587.925 171.939 588.453 172.072 589.039 172.072ZM592.207 173V170.472L592.319 168.776L592.159 167.08V161.128H593.295V173H592.207ZM602.903 173.08C602.209 173.08 601.553 172.984 600.935 172.792C600.316 172.589 599.831 172.339 599.479 172.04L599.991 171.144C600.332 171.4 600.769 171.624 601.303 171.816C601.836 171.997 602.396 172.088 602.983 172.088C603.783 172.088 604.359 171.965 604.711 171.72C605.063 171.464 605.239 171.128 605.239 170.712C605.239 170.403 605.137 170.163 604.935 169.992C604.743 169.811 604.487 169.677 604.167 169.592C603.847 169.496 603.489 169.416 603.095 169.352C602.7 169.288 602.305 169.213 601.911 169.128C601.527 169.043 601.175 168.92 600.855 168.76C600.535 168.589 600.273 168.36 600.071 168.072C599.879 167.784 599.783 167.4 599.783 166.92C599.783 166.461 599.911 166.051 600.167 165.688C600.423 165.325 600.796 165.043 601.287 164.84C601.788 164.627 602.396 164.52 603.111 164.52C603.655 164.52 604.199 164.595 604.743 164.744C605.287 164.883 605.735 165.069 606.087 165.304L605.591 166.216C605.217 165.96 604.817 165.779 604.391 165.672C603.964 165.555 603.537 165.496 603.111 165.496C602.353 165.496 601.793 165.629 601.431 165.896C601.079 166.152 600.903 166.483 600.903 166.888C600.903 167.208 600.999 167.459 601.191 167.64C601.393 167.821 601.655 167.965 601.975 168.072C602.305 168.168 602.663 168.248 603.047 168.312C603.441 168.376 603.831 168.456 604.215 168.552C604.609 168.637 604.967 168.76 605.287 168.92C605.617 169.069 605.879 169.288 606.071 169.576C606.273 169.853 606.375 170.221 606.375 170.68C606.375 171.171 606.236 171.597 605.959 171.96C605.692 172.312 605.297 172.589 604.775 172.792C604.263 172.984 603.639 173.08 602.903 173.08ZM608.459 173V164.6H609.595V173H608.459ZM609.035 162.744C608.8 162.744 608.603 162.664 608.443 162.504C608.283 162.344 608.203 162.152 608.203 161.928C608.203 161.704 608.283 161.517 608.443 161.368C608.603 161.208 608.8 161.128 609.035 161.128C609.27 161.128 609.467 161.203 609.627 161.352C609.787 161.501 609.867 161.688 609.867 161.912C609.867 162.147 609.787 162.344 609.627 162.504C609.478 162.664 609.28 162.744 609.035 162.744ZM611.844 173V172.248L617.444 165.16L617.684 165.544H611.94V164.6H618.58V165.336L612.996 172.44L612.708 172.056H618.692V173H611.844ZM624.355 173.08C623.48 173.08 622.712 172.899 622.051 172.536C621.39 172.163 620.872 171.656 620.499 171.016C620.126 170.365 619.939 169.624 619.939 168.792C619.939 167.96 620.115 167.224 620.467 166.584C620.83 165.944 621.32 165.443 621.939 165.08C622.568 164.707 623.272 164.52 624.051 164.52C624.84 164.52 625.539 164.701 626.147 165.064C626.766 165.416 627.251 165.917 627.603 166.568C627.955 167.208 628.131 167.949 628.131 168.792C628.131 168.845 628.126 168.904 628.115 168.968C628.115 169.021 628.115 169.08 628.115 169.144H620.803V168.296H627.507L627.059 168.632C627.059 168.024 626.926 167.485 626.659 167.016C626.403 166.536 626.051 166.163 625.603 165.896C625.155 165.629 624.638 165.496 624.051 165.496C623.475 165.496 622.958 165.629 622.499 165.896C622.04 166.163 621.683 166.536 621.427 167.016C621.171 167.496 621.043 168.045 621.043 168.664V168.84C621.043 169.48 621.182 170.045 621.459 170.536C621.747 171.016 622.142 171.395 622.643 171.672C623.155 171.939 623.736 172.072 624.387 172.072C624.899 172.072 625.374 171.981 625.811 171.8C626.259 171.619 626.643 171.341 626.963 170.968L627.603 171.704C627.23 172.152 626.76 172.493 626.195 172.728C625.64 172.963 625.027 173.08 624.355 173.08ZM630.555 166.264C630.321 166.264 630.118 166.179 629.947 166.008C629.787 165.837 629.707 165.629 629.707 165.384C629.707 165.128 629.787 164.92 629.947 164.76C630.118 164.6 630.321 164.52 630.555 164.52C630.79 164.52 630.987 164.6 631.147 164.76C631.318 164.92 631.403 165.128 631.403 165.384C631.403 165.629 631.318 165.837 631.147 166.008C630.987 166.179 630.79 166.264 630.555 166.264ZM630.555 173.08C630.321 173.08 630.118 172.995 629.947 172.824C629.787 172.653 629.707 172.445 629.707 172.2C629.707 171.944 629.787 171.736 629.947 171.576C630.118 171.416 630.321 171.336 630.555 171.336C630.79 171.336 630.987 171.416 631.147 171.576C631.318 171.736 631.403 171.944 631.403 172.2C631.403 172.445 631.318 172.653 631.147 172.824C630.987 172.995 630.79 173.08 630.555 173.08ZM639.222 173V162.28L639.734 162.824H636.582V161.8H640.374V173H639.222ZM642.843 173V172.184L647.499 167.624C647.925 167.208 648.245 166.845 648.459 166.536C648.672 166.216 648.816 165.917 648.891 165.64C648.965 165.363 649.003 165.101 649.003 164.856C649.003 164.205 648.779 163.693 648.331 163.32C647.893 162.947 647.243 162.76 646.379 162.76C645.717 162.76 645.131 162.861 644.619 163.064C644.117 163.267 643.685 163.581 643.323 164.008L642.507 163.304C642.944 162.792 643.504 162.397 644.187 162.12C644.869 161.843 645.632 161.704 646.475 161.704C647.232 161.704 647.888 161.827 648.443 162.072C648.997 162.307 649.424 162.653 649.723 163.112C650.032 163.571 650.187 164.109 650.187 164.728C650.187 165.091 650.133 165.448 650.027 165.8C649.931 166.152 649.749 166.525 649.483 166.92C649.227 167.304 648.848 167.741 648.347 168.232L644.075 172.424L643.755 171.976H650.699V173H642.843ZM656.577 173.096C655.713 173.096 654.945 172.872 654.273 172.424C653.601 171.965 653.073 171.315 652.689 170.472C652.305 169.619 652.113 168.595 652.113 167.4C652.113 166.205 652.305 165.187 652.689 164.344C653.073 163.491 653.601 162.84 654.273 162.392C654.945 161.933 655.713 161.704 656.577 161.704C657.441 161.704 658.209 161.933 658.881 162.392C659.553 162.84 660.081 163.491 660.465 164.344C660.86 165.187 661.057 166.205 661.057 167.4C661.057 168.595 660.86 169.619 660.465 170.472C660.081 171.315 659.553 171.965 658.881 172.424C658.209 172.872 657.441 173.096 656.577 173.096ZM656.577 172.04C657.239 172.04 657.815 171.864 658.305 171.512C658.796 171.149 659.18 170.627 659.457 169.944C659.735 169.251 659.873 168.403 659.873 167.4C659.873 166.397 659.735 165.555 659.457 164.872C659.18 164.179 658.796 163.656 658.305 163.304C657.815 162.941 657.239 162.76 656.577 162.76C655.937 162.76 655.367 162.941 654.865 163.304C654.364 163.656 653.975 164.179 653.697 164.872C653.42 165.555 653.281 166.397 653.281 167.4C653.281 168.403 653.42 169.251 653.697 169.944C653.975 170.627 654.364 171.149 654.865 171.512C655.367 171.864 655.937 172.04 656.577 172.04ZM667.171 173.096C666.307 173.096 665.539 172.872 664.867 172.424C664.195 171.965 663.667 171.315 663.283 170.472C662.899 169.619 662.707 168.595 662.707 167.4C662.707 166.205 662.899 165.187 663.283 164.344C663.667 163.491 664.195 162.84 664.867 162.392C665.539 161.933 666.307 161.704 667.171 161.704C668.035 161.704 668.803 161.933 669.475 162.392C670.147 162.84 670.675 163.491 671.059 164.344C671.454 165.187 671.651 166.205 671.651 167.4C671.651 168.595 671.454 169.619 671.059 170.472C670.675 171.315 670.147 171.965 669.475 172.424C668.803 172.872 668.035 173.096 667.171 173.096ZM667.171 172.04C667.832 172.04 668.408 171.864 668.899 171.512C669.39 171.149 669.774 170.627 670.051 169.944C670.328 169.251 670.467 168.403 670.467 167.4C670.467 166.397 670.328 165.555 670.051 164.872C669.774 164.179 669.39 163.656 668.899 163.304C668.408 162.941 667.832 162.76 667.171 162.76C666.531 162.76 665.96 162.941 665.459 163.304C664.958 163.656 664.568 164.179 664.291 164.872C664.014 165.555 663.875 166.397 663.875 167.4C663.875 168.403 664.014 169.251 664.291 169.944C664.568 170.627 664.958 171.149 665.459 171.512C665.96 171.864 666.531 172.04 667.171 172.04ZM672.617 173L676.169 168.392L676.153 168.952L672.777 164.6H674.057L676.825 168.2L676.345 168.184L679.113 164.6H680.361L676.953 169L676.969 168.392L680.553 173H679.257L676.329 169.16L676.777 169.224L673.897 173H672.617ZM681.421 173V172.184L686.077 167.624C686.504 167.208 686.824 166.845 687.037 166.536C687.25 166.216 687.394 165.917 687.469 165.64C687.544 165.363 687.581 165.101 687.581 164.856C687.581 164.205 687.357 163.693 686.909 163.32C686.472 162.947 685.821 162.76 684.957 162.76C684.296 162.76 683.709 162.861 683.197 163.064C682.696 163.267 682.264 163.581 681.901 164.008L681.085 163.304C681.522 162.792 682.082 162.397 682.765 162.12C683.448 161.843 684.21 161.704 685.053 161.704C685.81 161.704 686.466 161.827 687.021 162.072C687.576 162.307 688.002 162.653 688.301 163.112C688.61 163.571 688.765 164.109 688.765 164.728C688.765 165.091 688.712 165.448 688.605 165.8C688.509 166.152 688.328 166.525 688.061 166.92C687.805 167.304 687.426 167.741 686.925 168.232L682.653 172.424L682.333 171.976H689.277V173H681.421ZM695.155 173.096C694.291 173.096 693.523 172.872 692.851 172.424C692.179 171.965 691.651 171.315 691.267 170.472C690.883 169.619 690.691 168.595 690.691 167.4C690.691 166.205 690.883 165.187 691.267 164.344C691.651 163.491 692.179 162.84 692.851 162.392C693.523 161.933 694.291 161.704 695.155 161.704C696.019 161.704 696.787 161.933 697.459 162.392C698.131 162.84 698.659 163.491 699.043 164.344C699.438 165.187 699.635 166.205 699.635 167.4C699.635 168.595 699.438 169.619 699.043 170.472C698.659 171.315 698.131 171.965 697.459 172.424C696.787 172.872 696.019 173.096 695.155 173.096ZM695.155 172.04C695.817 172.04 696.393 171.864 696.883 171.512C697.374 171.149 697.758 170.627 698.035 169.944C698.313 169.251 698.451 168.403 698.451 167.4C698.451 166.397 698.313 165.555 698.035 164.872C697.758 164.179 697.374 163.656 696.883 163.304C696.393 162.941 695.817 162.76 695.155 162.76C694.515 162.76 693.945 162.941 693.443 163.304C692.942 163.656 692.553 164.179 692.275 164.872C691.998 165.555 691.859 166.397 691.859 167.4C691.859 168.403 691.998 169.251 692.275 169.944C692.553 170.627 692.942 171.149 693.443 171.512C693.945 171.864 694.515 172.04 695.155 172.04ZM705.749 173.096C704.885 173.096 704.117 172.872 703.445 172.424C702.773 171.965 702.245 171.315 701.861 170.472C701.477 169.619 701.285 168.595 701.285 167.4C701.285 166.205 701.477 165.187 701.861 164.344C702.245 163.491 702.773 162.84 703.445 162.392C704.117 161.933 704.885 161.704 705.749 161.704C706.613 161.704 707.381 161.933 708.053 162.392C708.725 162.84 709.253 163.491 709.637 164.344C710.032 165.187 710.229 166.205 710.229 167.4C710.229 168.595 710.032 169.619 709.637 170.472C709.253 171.315 708.725 171.965 708.053 172.424C707.381 172.872 706.613 173.096 705.749 173.096ZM705.749 172.04C706.41 172.04 706.986 171.864 707.477 171.512C707.968 171.149 708.352 170.627 708.629 169.944C708.906 169.251 709.045 168.403 709.045 167.4C709.045 166.397 708.906 165.555 708.629 164.872C708.352 164.179 707.968 163.656 707.477 163.304C706.986 162.941 706.41 162.76 705.749 162.76C705.109 162.76 704.538 162.941 704.037 163.304C703.536 163.656 703.146 164.179 702.869 164.872C702.592 165.555 702.453 166.397 702.453 167.4C702.453 168.403 702.592 169.251 702.869 169.944C703.146 170.627 703.536 171.149 704.037 171.512C704.538 171.864 705.109 172.04 705.749 172.04ZM716.967 173.08C716.242 173.08 715.586 172.915 714.999 172.584C714.412 172.243 713.943 171.757 713.591 171.128C713.25 170.488 713.079 169.709 713.079 168.792C713.079 167.875 713.25 167.101 713.591 166.472C713.932 165.832 714.396 165.347 714.983 165.016C715.57 164.685 716.231 164.52 716.967 164.52C717.767 164.52 718.482 164.701 719.111 165.064C719.751 165.416 720.252 165.917 720.615 166.568C720.978 167.208 721.159 167.949 721.159 168.792C721.159 169.645 720.978 170.392 720.615 171.032C720.252 171.672 719.751 172.173 719.111 172.536C718.482 172.899 717.767 173.08 716.967 173.08ZM712.631 176.104V164.6H713.719V167.128L713.607 168.808L713.767 170.504V176.104H712.631ZM716.887 172.072C717.484 172.072 718.018 171.939 718.487 171.672C718.956 171.395 719.33 171.011 719.607 170.52C719.884 170.019 720.023 169.443 720.023 168.792C720.023 168.141 719.884 167.571 719.607 167.08C719.33 166.589 718.956 166.205 718.487 165.928C718.018 165.651 717.484 165.512 716.887 165.512C716.29 165.512 715.751 165.651 715.271 165.928C714.802 166.205 714.428 166.589 714.151 167.08C713.884 167.571 713.751 168.141 713.751 168.792C713.751 169.443 713.884 170.019 714.151 170.52C714.428 171.011 714.802 171.395 715.271 171.672C715.751 171.939 716.29 172.072 716.887 172.072ZM721.898 173L725.45 168.392L725.434 168.952L722.058 164.6H723.338L726.106 168.2L725.626 168.184L728.394 164.6H729.642L726.234 169L726.25 168.392L729.834 173H728.538L725.61 169.16L726.058 169.224L723.178 173H721.898Z" fill="#838383"/>
</svg>
