<svg width="50" height="50" viewBox="0 0 50 50" fill="none" xmlns="http://www.w3.org/2000/svg">
<path fill-rule="evenodd" clip-rule="evenodd" d="M25 50C38.8071 50 50 38.8071 50 25C50 11.1929 38.8071 0 25 0C11.1929 0 0 11.1929 0 25C0 29.5031 1.19057 33.7281 3.2741 37.3774L0.413221 49.5868L12.2695 46.5205C15.9983 48.731 20.351 50 25 50ZM20.4685 11.9749C20.8258 11.8949 21.1966 11.8964 21.5533 11.979C21.91 12.0616 22.2436 12.2234 22.5294 12.4523C22.8152 12.6812 23.0459 12.9714 23.2045 13.3015C23.363 13.6314 23.4453 13.9928 23.4454 14.3588V14.359V14.3592V17.9748V36.7768C23.4454 37.2331 23.2642 37.6707 22.9415 37.9934C22.6189 38.316 22.1813 38.4973 21.725 38.4973C21.2687 38.4973 20.8311 38.316 20.5084 37.9934C20.1858 37.6707 20.0045 37.2331 20.0045 36.7768C20.0045 36.7365 20.0025 36.6967 19.9985 36.6575C20.0168 36.4888 19.9987 36.3134 19.9386 36.1427C19.7238 35.532 19.0546 35.2111 18.4439 35.4259C18.0092 35.5788 17.5463 35.635 17.0876 35.5906C16.6289 35.5462 16.1855 35.4022 15.7881 35.1687C15.3908 34.9352 15.0493 34.6178 14.7873 34.2387C14.5253 33.8596 14.3492 33.4279 14.2713 32.9737C14.1934 32.5195 14.2156 32.0537 14.3362 31.609C14.4569 31.1642 14.6732 30.7511 14.9699 30.3986C15.2667 30.046 15.6369 29.7625 16.0545 29.5678C16.4722 29.373 16.9273 29.2718 17.3882 29.2711C18.0355 29.2701 18.5595 28.7445 18.5586 28.0972C18.5576 27.4498 18.032 26.9258 17.3847 26.9268C16.5827 26.928 15.7907 27.1042 15.0639 27.4431C14.3371 27.7819 13.693 28.2753 13.1765 28.8888L13.1694 28.8973C12.8006 28.6204 12.4739 28.2888 12.2015 27.9125C11.7524 27.292 11.4649 26.5694 11.3648 25.81C11.2648 25.0506 11.3555 24.2782 11.6286 23.5626C11.9018 22.847 12.3488 22.2106 12.9294 21.711C13.1025 21.5621 13.2215 21.3736 13.2844 21.1704C13.4364 20.8176 13.4122 20.3973 13.1828 20.0541C12.8622 19.5744 12.7217 18.9968 12.7862 18.4235C12.8506 17.8501 13.1158 17.3181 13.5349 16.9215C13.9539 16.525 14.4997 16.2895 15.0757 16.2567C15.6518 16.2239 16.2208 16.396 16.6821 16.7425C16.8553 16.8726 17.0527 16.9475 17.2534 16.9701C17.5539 17.1037 17.9085 17.1109 18.2294 16.9599C18.8151 16.6842 19.0665 15.9859 18.7908 15.4002C18.6349 15.0689 18.5554 14.7067 18.5583 14.3406C18.5611 13.9744 18.6462 13.6136 18.8073 13.2847C18.9683 12.9559 19.2012 12.6674 19.4888 12.4407C19.7763 12.214 20.1111 12.0548 20.4685 11.9749ZM23.9949 10.6225C24.2208 10.8034 24.4291 11.0038 24.6176 11.221C24.8061 11.0038 25.0144 10.8034 25.2403 10.6225C25.8003 10.174 26.4539 9.85709 27.1528 9.69517C27.8518 9.53326 28.5782 9.53049 29.2784 9.68708C29.9785 9.84367 30.6345 10.1556 31.1979 10.5998C31.7613 11.0441 32.2177 11.6092 32.5332 12.2536C32.8039 12.8061 32.965 13.4048 33.009 14.0166C33.4274 13.9261 33.859 13.8915 34.2926 13.9162C35.4212 13.9804 36.4907 14.4418 37.3117 15.2188C38.1327 15.9958 38.6524 17.0383 38.7786 18.1617C38.8696 18.9708 38.7522 19.7844 38.4446 20.5274C39.0269 21.1679 39.4863 21.9133 39.7967 22.7266C40.2087 23.8059 40.3454 24.9708 40.1946 26.1161C40.0437 27.2615 39.61 28.3512 38.9327 29.287C38.4466 29.9586 37.8461 30.5356 37.161 30.9932L37.1615 30.9949C37.3715 31.7688 37.41 32.5792 37.2744 33.3696C37.1389 34.1599 36.8325 34.9111 36.3766 35.5709C35.9207 36.2306 35.3264 36.7828 34.635 37.1891C33.9437 37.5954 33.172 37.846 32.3739 37.9233C32.0517 37.9545 31.7283 37.9572 31.4075 37.9317C31.2167 38.5754 30.8677 39.1678 30.3844 39.651C29.6221 40.4133 28.5883 40.8416 27.5102 40.8416C26.4322 40.8416 25.3983 40.4133 24.636 39.651L24.6176 39.6325L24.5992 39.651C23.8369 40.4133 22.803 40.8416 21.725 40.8416C20.6469 40.8416 19.613 40.4133 18.8507 39.651C18.3677 39.168 18.0187 38.5758 17.8279 37.9325C17.5071 37.9579 17.1838 37.9552 16.8617 37.924C16.0634 37.8467 15.2917 37.5961 14.6003 37.1898C13.909 36.7835 13.3146 36.2312 12.8587 35.5714C12.4028 34.9117 12.0963 34.1604 11.9608 33.37C11.8252 32.5796 11.8637 31.7691 12.0737 30.9951L12.0742 30.9933C11.3892 30.5357 10.7886 29.9586 10.3025 29.287C9.62514 28.3512 9.19147 27.2615 9.04062 26.1161C8.88977 24.9708 9.0265 23.8059 9.43846 22.7266C9.7489 21.9133 10.2083 21.1679 10.7905 20.5274C10.483 19.7844 10.3656 18.9708 10.4565 18.1617C10.5828 17.0383 11.1024 15.9958 11.9235 15.2188C12.7445 14.4418 13.814 13.9804 14.9426 13.9162C15.3762 13.8915 15.8078 13.9261 16.2262 14.0166C16.2701 13.4048 16.4313 12.8061 16.7019 12.2536C17.0175 11.6092 17.4739 11.0441 18.0373 10.5998C18.6006 10.1556 19.2567 9.84367 19.9568 9.68708C20.657 9.53049 21.3834 9.53326 22.0823 9.69517C22.7813 9.85709 23.4349 10.174 23.9949 10.6225ZM25.7897 14.3588V14.359V14.3592V17.9748C25.7897 18.8146 26.1234 19.6201 26.7173 20.214C27.3112 20.8079 28.1166 21.1415 28.9565 21.1415C29.6039 21.1415 30.1287 21.6663 30.1287 22.3137C30.1287 22.9611 29.6039 23.4858 28.9565 23.4858C27.8156 23.4858 26.7111 23.132 25.7897 22.4852V36.7768C25.7897 37.2331 25.971 37.6707 26.2937 37.9934C26.6163 38.316 27.0539 38.4973 27.5102 38.4973C27.9665 38.4973 28.4041 38.316 28.7268 37.9934C29.0494 37.6707 29.2307 37.2331 29.2307 36.7768C29.2307 36.7356 29.2328 36.6949 29.237 36.6547C29.219 36.4867 29.2373 36.312 29.2971 36.142C29.5119 35.5313 30.1811 35.2104 30.7918 35.4252C31.2265 35.5781 31.6893 35.6343 32.1479 35.5899C32.6066 35.5455 33.05 35.4015 33.4472 35.168C33.8445 34.9346 34.186 34.6172 34.448 34.2381C34.7099 33.8591 34.886 33.4274 34.9639 32.9732C35.0418 32.5191 35.0196 32.0534 34.899 31.6087C34.7783 31.164 34.5621 30.751 34.2653 30.3985C33.9686 30.0459 33.5985 29.7624 33.1809 29.5677C32.7633 29.373 32.3082 29.2718 31.8474 29.2711C31.2 29.2701 30.676 28.7446 30.677 28.0972C30.678 27.4498 31.2035 26.9258 31.8509 26.9268C32.6528 26.928 33.4448 27.1042 34.1715 27.443C34.8983 27.7819 35.5424 28.2753 36.0588 28.8887L36.0659 28.8972C36.4347 28.6204 36.7613 28.2888 37.0336 27.9125C37.4828 27.292 37.7703 26.5694 37.8703 25.81C37.9704 25.0506 37.8797 24.2782 37.6066 23.5626C37.3334 22.847 36.8864 22.2106 36.3058 21.711C36.1327 21.5621 36.0137 21.3736 35.9508 21.1704C35.7988 20.8176 35.823 20.3973 36.0524 20.0541C36.3729 19.5744 36.5134 18.9968 36.449 18.4235C36.3846 17.8501 36.1194 17.3181 35.7003 16.9215C35.2813 16.525 34.7354 16.2895 34.1594 16.2567C33.5834 16.2239 33.0144 16.396 32.5531 16.7425C32.3799 16.8726 32.1824 16.9475 31.9817 16.9701C31.6813 17.1037 31.3267 17.1109 31.0058 16.9599C30.42 16.6842 30.1687 15.9859 30.4444 15.4002C30.6003 15.0689 30.6798 14.7067 30.6769 14.3406C30.6741 13.9744 30.589 13.6136 30.4279 13.2847C30.2668 12.9559 30.0339 12.6674 29.7464 12.4407C29.4589 12.214 29.124 12.0548 28.7667 11.9749C28.4094 11.8949 28.0386 11.8964 27.6819 11.979C27.3252 12.0616 26.9916 12.2234 26.7058 12.4523C26.42 12.6812 26.1893 12.9714 26.0307 13.3015C25.8722 13.6314 25.7899 13.9928 25.7897 14.3588Z" fill="#E6E6E6"/>
</svg>
