<svg width="300" height="300" viewBox="0 0 300 300" fill="none" xmlns="http://www.w3.org/2000/svg">
<line x1="150.5" y1="1.09278e-07" x2="150.5" y2="125" stroke="#838383" stroke-width="5" stroke-dasharray="10 10"/>
<circle cx="150" cy="150" r="23.5" stroke="#838383" stroke-width="3"/>
<line x1="140" y1="150" x2="160" y2="150" stroke="#838383" stroke-width="3"/>
<line x1="150" y1="160" x2="150" y2="140" stroke="#838383" stroke-width="3"/>
<path d="M59 224L62.3915 210.029H66.3802L69.665 224H67.3187L66.6575 221.334H61.9222L61.3036 224H59ZM66.1882 219.35L64.6098 212.013H64.1405L62.3701 219.35H66.1882ZM79.3915 209.773V222.23L79.6048 224L77.4505 224.213L77.2585 223.232C76.3342 223.9 75.4312 224.235 74.5496 224.235C73.2271 224.235 72.2317 223.851 71.5634 223.083C70.895 222.301 70.5609 220.985 70.5609 219.137C70.5609 217.288 70.9661 215.923 71.7767 215.041C72.5872 214.146 73.6395 213.698 74.9335 213.698C75.6872 213.698 76.4479 213.861 77.2158 214.188V209.773H79.3915ZM74.6989 222.187C75.4525 222.187 76.2915 221.803 77.2158 221.035V216.279C76.4764 215.923 75.7512 215.745 75.0402 215.745C73.6324 215.745 72.9285 216.876 72.9285 219.137C72.9285 221.17 73.5186 222.187 74.6989 222.187ZM90.0565 209.773V222.23L90.2698 224L88.1155 224.213L87.9235 223.232C86.9992 223.9 86.0962 224.235 85.2146 224.235C83.8921 224.235 82.8967 223.851 82.2284 223.083C81.56 222.301 81.2259 220.985 81.2259 219.137C81.2259 217.288 81.6311 215.923 82.4417 215.041C83.2522 214.146 84.3045 213.698 85.5985 213.698C86.3522 213.698 87.1129 213.861 87.8808 214.188V209.773H90.0565ZM85.3639 222.187C86.1175 222.187 86.9565 221.803 87.8808 221.035V216.279C87.1414 215.923 86.4162 215.745 85.7052 215.745C84.2974 215.745 83.5935 216.876 83.5935 219.137C83.5935 221.17 84.1836 222.187 85.3639 222.187ZM106.267 222.166C106.665 222.166 107.106 222.073 107.59 221.888C108.073 221.703 108.457 221.497 108.742 221.27V219.777C107.888 219.706 107.192 219.67 106.651 219.67C105.471 219.67 104.881 220.111 104.881 220.992C104.881 221.775 105.343 222.166 106.267 222.166ZM105.926 224.235C103.651 224.235 102.513 223.154 102.513 220.992C102.513 219.841 102.876 219.037 103.601 218.582C104.34 218.113 105.357 217.878 106.651 217.878C107.263 217.878 107.959 217.914 108.742 217.985C108.742 217.132 108.621 216.549 108.379 216.236C108.137 215.923 107.718 215.767 107.12 215.767C106.523 215.767 105.826 215.838 105.03 215.98C104.234 216.122 103.622 216.264 103.196 216.407L102.79 214.38C104.284 213.925 105.741 213.698 107.163 213.698C108.585 213.698 109.566 214.01 110.107 214.636C110.661 215.262 110.939 216.321 110.939 217.814V222.144L111.173 224.021L108.976 224.235L108.763 223.253C107.568 223.908 106.623 224.235 105.926 224.235ZM115.652 213.868L115.695 214.487C116.847 213.961 117.75 213.698 118.404 213.698C119.556 213.698 120.402 214.039 120.942 214.721C121.497 215.39 121.774 216.442 121.774 217.878V224H119.577V217.942C119.577 217.26 119.456 216.726 119.215 216.343C118.973 215.959 118.596 215.767 118.084 215.767C117.572 215.767 116.783 216.015 115.716 216.513V224H113.519V213.868H115.652ZM124.974 214.999C125.699 214.131 126.815 213.698 128.322 213.698C129.83 213.698 130.946 214.131 131.671 214.999C132.397 215.852 132.759 217.174 132.759 218.966C132.759 220.758 132.397 222.095 131.671 222.976C130.946 223.844 129.83 224.277 128.322 224.277C126.815 224.277 125.699 223.844 124.974 222.976C124.248 222.095 123.886 220.758 123.886 218.966C123.886 217.174 124.248 215.852 124.974 214.999ZM126.68 216.513C126.396 217.011 126.253 217.829 126.253 218.966C126.253 220.104 126.403 220.928 126.701 221.44C127 221.952 127.54 222.208 128.322 222.208C129.105 222.208 129.645 221.952 129.944 221.44C130.242 220.928 130.392 220.104 130.392 218.966C130.392 217.829 130.242 217.011 129.944 216.513C129.659 216.015 129.119 215.767 128.322 215.767C127.526 215.767 126.979 216.015 126.68 216.513ZM134.913 215.831V213.868H136.641V211.437L138.838 211.223V213.868H142.827V215.831H138.838V220.097C138.838 220.879 138.916 221.433 139.073 221.76C139.229 222.073 139.549 222.23 140.033 222.23C140.872 222.23 141.853 222.095 142.976 221.824L143.339 223.723C142.102 224.05 141 224.213 140.033 224.213C138.668 224.213 137.757 223.908 137.302 223.296C136.862 222.685 136.641 221.618 136.641 220.097V215.831H134.913ZM147.711 216.534V224H145.514V209.773H147.711V214.465C148.863 213.954 149.766 213.698 150.42 213.698C151.643 213.698 152.504 214.053 153.001 214.764C153.513 215.475 153.769 216.513 153.769 217.878V224H151.572V217.836C151.572 217.238 151.451 216.748 151.21 216.364C150.982 215.966 150.676 215.767 150.292 215.767C149.596 215.767 148.735 216.023 147.711 216.534ZM156.03 218.945C156.03 217.224 156.414 215.923 157.182 215.041C157.95 214.146 159.016 213.698 160.381 213.698C161.747 213.698 162.799 214.103 163.538 214.913C164.292 215.71 164.683 216.883 164.711 218.433L164.626 220.011H158.398C158.526 221.547 159.294 222.315 160.701 222.315C161.683 222.315 162.721 222.137 163.816 221.782L164.264 223.637C163.809 223.794 163.218 223.929 162.493 224.043C161.768 224.171 161.171 224.235 160.701 224.235C157.587 224.235 156.03 222.471 156.03 218.945ZM160.467 215.681C159.798 215.681 159.294 215.88 158.952 216.279C158.625 216.662 158.44 217.309 158.398 218.22H162.344C162.344 216.527 161.718 215.681 160.467 215.681ZM166.951 224V222.038H169.02V215.831H166.951V213.868H171.217L171.26 214.892C172.341 214.281 173.578 213.897 174.971 213.74H175.547V215.873H174.971C173.407 216.015 172.17 216.343 171.26 216.854V222.08H174.438V224H166.951ZM188.281 224V222.038H191.459V215.831H188.452V213.868H193.656V222.038H196.664V224H188.281ZM192.44 212.396C192.014 212.396 191.673 212.268 191.417 212.013C191.175 211.742 191.054 211.394 191.054 210.967C191.054 210.541 191.182 210.199 191.438 209.944C191.694 209.688 192.035 209.56 192.462 209.56C192.903 209.56 193.237 209.688 193.464 209.944C193.706 210.185 193.827 210.527 193.827 210.967C193.827 211.408 193.706 211.757 193.464 212.013C193.223 212.268 192.881 212.396 192.44 212.396ZM200.226 213.868L200.29 214.444C200.83 213.946 201.356 213.698 201.868 213.698C202.594 213.698 203.141 213.968 203.511 214.508C204.25 213.968 204.904 213.698 205.473 213.698C206.326 213.698 206.931 213.946 207.286 214.444C207.656 214.942 207.841 215.866 207.841 217.217V224H205.665V218.156C205.665 216.847 205.551 216.094 205.324 215.895C205.21 215.781 205.047 215.724 204.833 215.724C204.62 215.724 204.35 215.866 204.023 216.151C204.094 216.478 204.129 217.146 204.129 218.156V220.523H201.975V218.156C201.975 216.862 201.897 216.108 201.74 215.895C201.655 215.781 201.506 215.724 201.292 215.724C201.093 215.724 200.788 215.88 200.375 216.193V224H198.136V213.868H200.226ZM212.917 222.166C213.315 222.166 213.756 222.073 214.24 221.888C214.723 221.703 215.107 221.497 215.392 221.27V219.777C214.538 219.706 213.842 219.67 213.301 219.67C212.121 219.67 211.531 220.111 211.531 220.992C211.531 221.775 211.993 222.166 212.917 222.166ZM212.576 224.235C210.301 224.235 209.163 223.154 209.163 220.992C209.163 219.841 209.526 219.037 210.251 218.582C210.99 218.113 212.007 217.878 213.301 217.878C213.913 217.878 214.609 217.914 215.392 217.985C215.392 217.132 215.271 216.549 215.029 216.236C214.787 215.923 214.368 215.767 213.77 215.767C213.173 215.767 212.476 215.838 211.68 215.98C210.884 216.122 210.272 216.264 209.846 216.407L209.44 214.38C210.934 213.925 212.391 213.698 213.813 213.698C215.235 213.698 216.216 214.01 216.757 214.636C217.311 215.262 217.589 216.321 217.589 217.814V222.144L217.823 224.021L215.626 224.235L215.413 223.253C214.218 223.908 213.273 224.235 212.576 224.235ZM228.616 221.547L228.915 224.491C228.915 227.022 227.159 228.287 223.646 228.287C222.608 228.287 221.35 227.996 219.871 227.413L220.404 225.472C221.812 226.012 222.978 226.282 223.902 226.282C224.827 226.282 225.516 226.147 225.971 225.877C226.441 225.607 226.675 225.152 226.675 224.512L226.462 222.955C226.121 223.239 225.673 223.488 225.118 223.701C224.578 223.9 224.059 224 223.561 224C222.267 224 221.314 223.609 220.703 222.827C220.105 222.031 219.807 220.729 219.807 218.923C219.807 215.468 221.243 213.74 224.116 213.74C224.955 213.74 225.722 213.961 226.419 214.401L226.462 213.74H228.616V221.547ZM224.308 215.724C223.497 215.724 222.914 215.98 222.558 216.492C222.203 216.99 222.025 217.765 222.025 218.817C222.025 219.869 222.16 220.665 222.43 221.206C222.701 221.746 223.184 222.016 223.881 222.016C224.578 222.016 225.424 221.604 226.419 220.779V216.3C225.836 215.916 225.132 215.724 224.308 215.724ZM230.685 218.945C230.685 217.224 231.069 215.923 231.837 215.041C232.605 214.146 233.671 213.698 235.036 213.698C236.402 213.698 237.454 214.103 238.193 214.913C238.947 215.71 239.338 216.883 239.366 218.433L239.281 220.011H233.053C233.181 221.547 233.949 222.315 235.356 222.315C236.338 222.315 237.376 222.137 238.471 221.782L238.919 223.637C238.464 223.794 237.873 223.929 237.148 224.043C236.423 224.171 235.826 224.235 235.356 224.235C232.242 224.235 230.685 222.471 230.685 218.945ZM235.122 215.681C234.453 215.681 233.949 215.88 233.607 216.279C233.28 216.662 233.095 217.309 233.053 218.22H236.999C236.999 216.527 236.373 215.681 235.122 215.681Z" fill="#838383"/>
</svg>
