<svg width="26" height="24" viewBox="0 0 26 24" fill="none" xmlns="http://www.w3.org/2000/svg">
<path d="M20.3329 8.66675H5.88845C5.27481 8.66675 4.77734 9.16421 4.77734 9.77786V20.889C4.77734 21.5026 5.27481 22.0001 5.88845 22.0001H20.3329C20.9465 22.0001 21.444 21.5026 21.444 20.889V9.77786C21.444 9.16421 20.9465 8.66675 20.3329 8.66675Z" fill="#E6E6E6" stroke="#E6E6E6" stroke-width="2.33333"/>
<path d="M9.14342 14.3811C9.93239 14.3811 10.572 13.7415 10.572 12.9525C10.572 12.1635 9.93239 11.5239 9.14342 11.5239C8.35444 11.5239 7.71484 12.1635 7.71484 12.9525C7.71484 13.7415 8.35444 14.3811 9.14342 14.3811Z" fill="#202124"/>
<path d="M16.7626 14.3811C17.5515 14.3811 18.1911 13.7415 18.1911 12.9525C18.1911 12.1635 17.5515 11.5239 16.7626 11.5239C15.9736 11.5239 15.334 12.1635 15.334 12.9525C15.334 13.7415 15.9736 14.3811 16.7626 14.3811Z" fill="#202124"/>
<path d="M10.0946 16.762C9.71571 16.762 9.35234 16.9125 9.08443 17.1804C8.81653 17.4483 8.66602 17.8117 8.66602 18.1905C8.66602 18.5694 8.81653 18.9328 9.08443 19.2007C9.35234 19.4686 9.71571 19.6191 10.0946 19.6191V16.762ZM15.8089 19.6191C16.1878 19.6191 16.5511 19.4686 16.819 19.2007C17.0869 18.9328 17.2374 18.5694 17.2374 18.1905C17.2374 17.8117 17.0869 17.4483 16.819 17.1804C16.5511 16.9125 16.1878 16.762 15.8089 16.762V19.6191ZM10.0946 19.6191H15.8089V16.762H10.0946V19.6191Z" fill="#202124"/>
<path d="M13.1111 4.22217V8.66661M2 13.1111V17.5555M24.2222 13.1111V17.5555" stroke="#E6E6E6" stroke-width="2.33333" stroke-linecap="round" stroke-linejoin="round"/>
<path d="M13.1111 4.22222C13.7248 4.22222 14.2222 3.72476 14.2222 3.11111C14.2222 2.49746 13.7248 2 13.1111 2C12.4975 2 12 2.49746 12 3.11111C12 3.72476 12.4975 4.22222 13.1111 4.22222Z" stroke="#E6E6E6" stroke-width="2.33333"/>
</svg>
