<svg width="120" height="100" viewBox="0 0 120 100" fill="none" xmlns="http://www.w3.org/2000/svg">
<path d="M118.156 64.557C119.422 58.2279 119.633 50.6329 119.422 45.5696L0.0556096 43.6709C-0.198549 49.3671 1.5741 62.0253 3.59942 64.557C5.62474 67.0886 7.39689 67.0886 11.1944 67.7215C14.9918 68.3544 29.5488 67.7215 34.6121 67.0886C39.6754 66.4557 42.207 68.3544 42.8399 69.6203C43.4728 70.8861 48.9159 85.9494 50.4349 90.5063C52.3336 96.2025 51.7002 100 64.3584 100C97.2698 100 116.891 70.8861 118.156 64.557Z" fill="#A0A0A0"/>
<path d="M8.0284 61.3924C14.6107 64.9367 32.29 62.8692 40.3069 61.3924C40.3069 61.3924 42.8385 61.3924 44.1044 62.6582C45.3702 63.924 46.0031 66.4557 46.0031 66.4557C48.1128 73.4177 51.6993 87.3418 52.9651 89.2405C54.2309 91.1392 56.1297 92.4051 58.6613 92.4051C78.9145 89.8734 119.421 77.2152 119.421 46.8354C119.421 8.86076 71.9525 0 59.2942 0C46.636 0 27.0163 3.16456 10.5598 20.2532C-5.89675 37.3418 -0.199447 56.962 8.0284 61.3924Z" fill="#E6E6E6"/>
<circle cx="85.2444" cy="69.6203" r="8.22785" fill="#D02828"/>
<circle cx="92.2065" cy="46.2026" r="8.86076" fill="#21B4D5"/>
<circle cx="82.7124" cy="24.0507" r="9.49367" fill="#2724D2"/>
<circle cx="58.6616" cy="16.4557" r="9.49367" fill="#802ED2"/>
<circle cx="35.2436" cy="25.9494" r="8.86076" fill="#87D129"/>
<circle cx="19.421" cy="46.8354" r="6.96203" fill="#D7BB2B"/>
</svg>
