<svg width="20" height="6" viewBox="0 0 20 6" fill="none" xmlns="http://www.w3.org/2000/svg">
<path d="M2.20071 5.26281C1.59171 5.26281 1.06575 5.04136 0.622844 4.59845C0.207615 4.15553 0 3.61574 0 2.97905C0 2.31468 0.207615 1.77489 0.622844 1.35966C1.06575 0.94443 1.59171 0.736816 2.20071 0.736816C2.80972 0.736816 3.32183 0.94443 3.73706 1.35966C4.17997 1.77489 4.40143 2.31468 4.40143 2.97905C4.40143 3.61574 4.17997 4.15553 3.73706 4.59845C3.32183 5.04136 2.80972 5.26281 2.20071 5.26281Z" fill="#E6E6E6"/>
<path d="M10 5.26281C9.391 5.26281 8.86504 5.04136 8.42213 4.59845C8.0069 4.15553 7.79929 3.61574 7.79929 2.97905C7.79929 2.31468 8.0069 1.77489 8.42213 1.35966C8.86504 0.94443 9.391 0.736816 10 0.736816C10.609 0.736816 11.1211 0.94443 11.5363 1.35966C11.9793 1.77489 12.2007 2.31468 12.2007 2.97905C12.2007 3.61574 11.9793 4.15553 11.5363 4.59845C11.1211 5.04136 10.609 5.26281 10 5.26281Z" fill="#E6E6E6"/>
<path d="M17.7993 5.26281C17.1903 5.26281 16.6643 5.04136 16.2214 4.59845C15.8062 4.15553 15.5986 3.61574 15.5986 2.97905C15.5986 2.31468 15.8062 1.77489 16.2214 1.35966C16.6643 0.94443 17.1903 0.736816 17.7993 0.736816C18.4083 0.736816 18.9204 0.94443 19.3356 1.35966C19.7785 1.77489 20 2.31468 20 2.97905C20 3.61574 19.7785 4.15553 19.3356 4.59845C18.9204 5.04136 18.4083 5.26281 17.7993 5.26281Z" fill="#E6E6E6"/>
</svg>
